<svg width="382" height="319" viewBox="0 0 382 319" fill="none" xmlns="http://www.w3.org/2000/svg">
<path d="M220.061 138.605C220.061 144.616 219.556 150.504 218.577 156.235C214.9 178.001 204.53 197.492 189.629 212.503C180.223 222.037 169 229.739 156.515 235.104C145.672 239.777 133.85 242.68 121.46 243.407C120.766 243.47 120.055 243.501 119.345 243.518C117.925 243.581 116.488 243.613 115.052 243.613C110.743 243.613 106.481 243.36 102.315 242.855V242.838H102.283C93.286 241.749 84.6366 239.509 76.4922 236.273L73.6357 235.262C71.2678 234.443 70.0053 231.853 70.826 229.47L72.2623 225.334L75.1195 217.127L75.1351 217.064C75.9561 214.697 78.5445 213.433 80.928 214.255L84.2574 215.406C85.5208 215.834 86.4674 216.779 86.9412 217.933C87.3829 218.927 87.4463 220.096 87.0671 221.199L84.4951 228.617C94.0756 231.885 104.35 233.668 115.052 233.668C128.389 233.668 141.079 230.937 152.586 225.966C163.887 221.136 174.051 214.128 182.575 205.527C196.07 191.921 205.461 174.276 208.775 154.544C209.674 149.369 210.133 144.048 210.133 138.605C210.133 120.12 204.846 102.869 195.691 88.2687C184.815 70.8449 168.401 57.2238 148.94 49.7889C148.213 49.5047 147.471 49.2373 146.714 48.9846C145.072 48.3845 143.415 47.8476 141.726 47.3591C142.105 46.3 142.5 45.243 142.863 44.1691C143.557 42.1351 144.251 40.0506 144.915 37.9513C146.367 38.3766 147.803 38.8356 149.223 39.341C150.676 39.8295 152.112 40.3517 153.548 40.9181C174.589 49.2057 192.297 64.0733 204.12 83.0131C214.237 99.144 220.061 118.181 220.061 138.605" fill="#659FA6"/>
<path d="M75.1195 217.127L86.9412 217.933C87.3829 218.927 87.4463 220.096 87.0671 221.199L84.4475 228.743L72.2622 225.334L75.1195 217.127Z" fill="#55868C"/>
<path d="M206.423 138.605C206.423 143.844 205.981 148.973 205.128 153.961C201.926 172.949 192.88 189.933 179.891 203.032C171.683 211.334 161.898 218.06 151.023 222.73C139.943 227.514 127.711 230.148 114.878 230.148C96.4427 230.148 79.2863 224.703 64.923 215.312L53.4962 206.521C34.9817 189.775 23.3336 165.546 23.3336 138.605C23.3336 137.845 23.3492 137.089 23.3648 136.331C23.4915 130.791 24.1223 125.393 25.1956 120.137C32.0455 86.7233 57.0789 59.9528 89.514 50.625C97.5639 48.3047 106.071 47.0582 114.878 47.0582C118.004 47.0582 121.097 47.2161 124.144 47.5151C153.012 50.4208 177.918 66.7412 192.535 90.1322C201.34 104.196 206.423 120.8 206.423 138.605Z" fill="#8AE2FF"/>
<path d="M114.878 230.148C104.645 230.148 94.8052 228.472 85.6187 225.372C81.5943 224.014 77.6964 222.385 73.9451 220.502C70.8328 218.942 67.8208 217.207 64.923 215.312C65.285 215.331 65.6501 215.341 66.0169 215.341C70.438 215.341 75.0973 213.891 76.54 209.898C76.9792 208.686 77.0517 207.374 77.1955 206.085C78.3552 204.384 79.5801 202.773 81.3673 201.823C82.5016 201.221 83.7483 200.96 85.0192 200.96C87.0179 200.96 89.074 201.607 90.8408 202.584C93.7318 204.184 96.0957 206.565 98.713 208.582C104.924 213.366 112.556 215.933 120.391 216.462C121.786 219.043 123.085 221.561 125.816 221.627C125.85 221.627 125.884 221.627 125.919 221.627C128.968 221.627 130.9 218.142 133.788 217.064C134.468 216.811 135.155 216.699 135.843 216.699C138.706 216.699 141.591 218.616 144.251 220.079C146.382 221.248 148.67 222.147 151.023 222.73C139.943 227.514 127.711 230.148 114.878 230.148V230.148ZM53.4962 206.521C34.9817 189.775 23.3336 165.546 23.3336 138.605C23.3336 137.845 23.3492 137.089 23.3648 136.331C25.922 146.055 30.1519 155.351 35.7705 163.7C40.6216 170.947 46.5296 177.489 53.2939 182.989C53.0932 183.551 52.913 184.122 52.7542 184.699C51.222 190.268 51.7246 196.351 54.0266 201.64C53.696 203.03 53.4798 204.458 53.4789 205.841C53.4781 206.07 53.4838 206.296 53.4962 206.521V206.521ZM184.523 157.987C187.892 152.174 190.604 145.992 192.549 139.565C193.232 141.252 193.935 142.924 194.969 144.402C196.377 146.417 198.706 148.028 201.031 148.028C201.608 148.028 202.182 147.929 202.745 147.712C202.195 136.514 199.938 125.42 196.144 114.9C196.116 106.533 194.882 98.1693 192.535 90.1322C201.34 104.195 206.423 120.8 206.423 138.605C206.423 143.844 205.981 148.973 205.128 153.961C205.021 154.599 204.907 155.235 204.787 155.867C201.536 155.903 198.306 156.071 195.141 156.406C191.507 156.717 187.949 157.231 184.523 157.987Z" fill="#81D2ED"/>
<path d="M50.684 152.63C49.8155 152.63 48.9461 152.552 48.0775 152.382C42.6392 151.314 38.6097 146.861 34.9965 142.658C30.7754 137.748 26.3242 132.259 26.2436 125.782C26.2238 124.224 26.4524 122.733 26.8778 121.305C27.9708 122.097 28.9528 122.969 29.4571 124.209C30.704 127.271 28.4946 131.328 30.6415 133.836C32.8193 136.363 37.5224 134.878 39.7638 137.342C41.5478 139.298 40.6479 142.425 41.5 144.932C42.4156 147.649 45.3518 149.257 48.2083 149.495C48.5374 149.523 48.8654 149.535 49.1937 149.535C51.1167 149.535 53.0149 149.093 54.8813 148.543C55.3673 149.603 55.9191 150.641 56.5304 151.643C54.6031 152.237 52.6464 152.63 50.684 152.63V152.63ZM90.7635 59.5253C88.6546 57.127 88.3905 54.9287 88.8561 52.7621C88.9868 52.84 89.1128 52.9327 89.2336 53.0379C90.7536 54.3624 90.3976 57.0975 90.9124 59.4621C90.8629 59.4832 90.8128 59.5042 90.7635 59.5253" fill="#81D2ED"/>
<path d="M101.573 73.5758C100.262 75.454 97.7374 75.8645 95.5273 76.4478C93.3182 77.031 90.8399 78.3892 90.7298 80.6779C90.5396 85.0976 98.9053 85.9019 98.842 90.3363C98.8108 93.32 94.6908 95.0886 94.7697 98.0723C94.8011 99.6178 95.9855 100.881 96.4749 102.349C97.4685 105.395 95.3694 108.489 93.3813 110.998C89.167 116.332 84.353 122.03 77.6601 123.198C73.857 123.862 69.0586 123.341 67.022 126.624C64.7651 130.254 68.2212 134.91 67.6537 139.14C66.9907 144.096 61.3871 146.526 56.605 148.011C53.8745 148.878 51.0648 149.731 48.2081 149.495C45.3517 149.257 42.4155 147.648 41.4999 144.932C40.6478 142.424 41.5477 139.298 39.7637 137.342C37.5223 134.878 32.8192 136.362 30.6414 133.836C28.4945 131.328 30.7039 127.27 29.457 124.209C28.6994 122.346 26.8686 121.32 25.1955 120.137C32.0454 86.7231 57.0788 59.9526 89.514 50.6248C88.346 53.6885 87.9036 56.7016 91.345 60.1442C93.555 62.3677 96.6795 63.4416 99.1422 65.3829C101.604 67.3411 103.372 70.9859 101.573 73.5758" fill="#A0BF22"/>
<path d="M129.881 48.2772C129.254 48.174 128.628 48.0772 127.996 47.9866C128.338 48.0077 128.716 48.054 129.131 48.1277C129.381 48.1719 129.631 48.2225 129.881 48.2772Z" fill="#4C859C"/>
<path d="M163.429 140.157C160.992 140.157 158.589 139.582 156.463 138.319C152.991 136.255 150.46 132.596 146.66 131.265C145.466 130.848 144.244 130.692 143.003 130.692C139.951 130.692 136.797 131.642 133.707 131.993C133.221 132.048 132.723 132.078 132.218 132.078C128.199 132.078 123.808 130.307 123.204 126.388C122.759 123.489 124.75 120.68 127.231 119.206C129.713 117.734 132.624 117.273 135.426 116.64C141.743 115.21 148.555 112.049 150.626 105.783C152.267 100.816 150.421 95.4509 149.138 90.3722C147.855 85.2956 147.387 79.2084 150.989 75.4731C152.164 74.2539 153.776 73.2685 154.171 71.6051C154.562 69.9606 153.527 68.2446 152.135 67.3307C150.742 66.4148 149.059 66.12 147.429 65.821C142.134 64.8503 136.744 63.5659 132.281 60.4938C128.998 58.2345 121.262 47.974 127.603 47.974C127.729 47.974 127.86 47.9782 127.996 47.9866C128.628 48.0772 129.254 48.1741 129.881 48.2772C136.044 49.6122 142.703 53.7391 148.036 56.8554C159.949 63.8102 170.595 73.0495 179.156 84.0134C186.397 93.2843 192.13 103.77 196.144 114.9C196.16 120.088 195.712 125.279 194.775 130.395C194.476 132.055 194.128 133.678 193.718 135.306C193.366 136.735 192.975 138.157 192.549 139.565C192.071 138.388 191.604 137.203 191.04 136.072C189.667 133.32 187.365 130.686 184.354 130.421C184.177 130.404 184.005 130.397 183.832 130.397C180.139 130.397 177.277 133.853 174.3 136.247C171.237 138.71 167.29 140.157 163.429 140.157" fill="#81D2ED"/>
<path d="M201.031 148.028C198.706 148.028 196.377 146.417 194.969 144.402C193.935 142.924 193.232 141.252 192.549 139.565C192.975 138.157 193.366 136.735 193.718 135.306C194.129 133.678 194.476 132.055 194.775 130.395C195.712 125.279 196.16 120.088 196.144 114.9C199.938 125.42 202.195 136.514 202.745 147.712C202.182 147.929 201.608 148.028 201.031 148.028" fill="#7BC9E3"/>
<path d="M206.423 138.605C206.423 143.844 205.981 148.973 205.128 153.961C201.909 154.292 198.611 153.22 196.874 150.552C195.737 148.8 195.39 146.669 195.091 144.602C194.634 141.492 194.175 138.399 193.718 135.306C193.592 134.548 193.48 133.773 193.37 133.017C192.96 130.223 192.44 127.224 190.435 125.251C187.325 122.158 181.99 122.946 178.233 125.203C174.477 127.46 171.51 130.886 167.674 133.017C163.839 135.131 158.378 135.51 155.616 132.116C154.621 130.886 154.116 129.324 153.17 128.043C150.707 124.729 145.941 124.129 141.836 124.666C137.748 125.203 133.676 126.607 129.573 126.167C125.454 125.725 121.16 122.535 121.475 118.417C121.823 114.014 126.906 111.645 131.294 111.203C135.697 110.777 140.495 111.22 144.141 108.741C148.861 105.537 149.539 98.9714 149.776 93.2737C149.95 88.7909 150.139 84.3081 150.312 79.8085C150.391 77.7892 150.676 75.4225 152.412 74.3949C154.243 73.3063 156.658 74.3318 158.678 73.6854C162.071 72.6115 162.276 67.4191 159.861 64.8145C157.447 62.2099 153.675 61.4856 150.202 60.7275C143.052 59.1799 136.029 56.9396 129.305 54.0655C124.948 52.2041 123.685 49.869 124.144 47.515C153.012 50.4207 177.918 66.7411 192.535 90.1321C201.34 104.195 206.423 120.8 206.423 138.605" fill="#A0BF22"/>
<path d="M104.382 202.07C97.6106 201.771 90.8713 200.697 84.353 198.865C85.4262 198.644 86.5308 198.518 87.6198 198.454C88.0302 198.408 88.4408 198.393 88.8356 198.376C89.945 198.326 91.0841 198.284 92.2275 198.284C96.7084 198.284 101.25 198.913 104.319 202.007L104.382 202.07V202.07ZM55.7529 184.913C54.9214 184.286 54.1015 183.646 53.2938 182.989C55.6198 176.468 60.711 170.962 67.0665 168.195C69.5561 167.113 72.2458 166.411 74.9353 165.736C75.0035 165.755 75.0734 165.771 75.1416 165.788C74.8456 165.948 74.5594 166.123 74.283 166.321C70.6525 168.892 69.6738 174.417 65.6328 176.295C63.8184 177.148 61.7185 177.068 59.7462 177.384C57.7574 177.7 55.6108 178.693 55.0267 180.603C54.8054 181.346 54.8532 182.088 55.0111 182.829C55.1057 183.225 55.2316 183.604 55.3895 183.997C55.5005 184.296 55.6264 184.612 55.7529 184.913V184.913ZM177.364 159.021C174.957 157.517 172.121 156.517 169.379 155.698C160.588 153.077 151.559 151.325 142.437 150.457C140.394 150.262 138.323 150.114 136.261 150.114C135.558 150.114 134.858 150.131 134.159 150.169C137.096 149.67 140.11 149.47 143.156 149.47C148.964 149.47 154.887 150.196 160.604 150.959C166.325 151.719 174.662 153.456 177.364 159.021ZM116.372 158.869C113.027 158.869 110.21 152.504 107.002 150.914C105.869 150.361 104.618 150.017 103.346 149.887C103.827 148.868 104.266 147.832 104.66 146.785C104.929 146.863 105.197 146.962 105.461 147.082C109.598 148.981 110.58 155.361 114.996 156.467C115.422 156.574 115.846 156.62 116.268 156.62C118.623 156.62 120.907 155.121 123.053 153.938C123.557 153.658 124.067 153.395 124.581 153.148C121.762 155.422 118.885 158.823 116.409 158.869C116.397 158.869 116.384 158.869 116.372 158.869" fill="#81D2ED"/>
<path d="M120.391 216.461C112.556 215.933 104.924 213.366 98.713 208.582C96.0957 206.565 93.7318 204.184 90.8408 202.583C89.074 201.606 87.0179 200.96 85.0192 200.96C83.7483 200.96 82.5016 201.221 81.3673 201.823C79.5801 202.773 78.3552 204.384 77.1955 206.085C77.3107 205.06 77.4711 204.049 77.8971 203.112C79.0183 200.617 81.5589 199.433 84.353 198.865C90.8713 200.697 97.6107 201.771 104.382 202.07L104.635 202.369C106.86 204.801 108.107 208.273 111.027 209.74C112.811 210.639 114.957 210.639 116.646 211.667C118.327 212.699 119.384 214.598 120.391 216.461V216.461ZM54.0266 201.64C51.7245 196.351 51.2219 190.268 52.7542 184.699C52.9129 184.122 53.0932 183.551 53.2938 182.989C54.1015 183.646 54.9215 184.286 55.753 184.913C56.0056 185.513 56.2581 186.128 56.4628 186.728C56.7936 187.754 56.9308 188.798 56.9308 189.851C56.93 192.978 55.7144 196.187 54.7109 199.244C54.4568 200.019 54.2216 200.823 54.0266 201.64" fill="#7BC9E3"/>
<path d="M172.473 188.653C177.13 191.794 179.813 197.414 179.89 203.032C171.683 211.334 161.898 218.06 151.023 222.73C148.67 222.146 146.382 221.247 144.251 220.079C140.952 218.264 137.307 215.754 133.787 217.064C130.867 218.154 128.926 221.704 125.816 221.626C121.113 221.515 120.655 214.128 116.646 211.667C114.957 210.639 112.811 210.639 111.027 209.74C108.107 208.273 106.86 204.801 104.635 202.369L104.382 202.07L104.319 202.007C100.468 198.124 94.296 198.124 88.8356 198.376C88.4408 198.393 88.0302 198.408 87.6198 198.454C86.5308 198.518 85.4262 198.644 84.353 198.865C81.5589 199.433 79.0183 200.617 77.897 203.112C76.9348 205.226 77.3287 207.721 76.54 209.898C74.9772 214.223 69.6425 215.564 64.923 215.312L53.4962 206.521C53.3694 204.123 53.9535 201.55 54.7109 199.244C56.0524 195.157 57.7731 190.801 56.4627 186.728C56.2581 186.128 56.0056 185.513 55.753 184.913C55.6264 184.612 55.5005 184.296 55.3895 183.997C55.2316 183.604 55.1057 183.225 55.0112 182.829C54.8532 182.088 54.8054 181.346 55.0267 180.603C55.6108 178.693 57.7575 177.7 59.7462 177.384C61.7185 177.068 63.8184 177.148 65.6328 176.295C69.6739 174.417 70.6525 168.892 74.283 166.321C79.1918 162.832 87.336 165.736 91.1237 161.049C92.8122 158.981 92.971 156.06 94.3594 153.772C96.8063 149.716 102.741 148.832 107.002 150.914C110.222 152.508 113.047 158.918 116.409 158.869C119.771 158.806 123.875 152.557 127.569 151.342C132.319 149.779 137.465 149.984 142.437 150.457C151.559 151.325 160.588 153.077 169.379 155.698C173.972 157.071 178.833 158.949 181.484 162.864L181.579 163.005L181.863 163.415L181.895 163.464C184.359 167.631 183.773 173.044 181.628 177.384C179.465 181.74 175.945 185.244 172.473 188.653" fill="#A0BF22"/>
<path d="M66.0169 215.341C65.6501 215.341 65.285 215.331 64.923 215.312L53.4962 206.521C53.4837 206.296 53.4781 206.07 53.4789 205.841C53.4804 203.643 54.024 201.333 54.7109 199.244C55.7144 196.187 56.93 192.978 56.9308 189.851C56.9308 188.798 56.7935 187.754 56.4627 186.728C56.2581 186.128 56.0056 185.513 55.7529 184.913C55.6264 184.612 55.5005 184.296 55.3895 183.997C61.3715 186.05 67.4169 190.468 73.0519 192.931C77.8181 195.014 82.6643 196.877 87.6198 198.454C86.5308 198.518 85.4262 198.644 84.353 198.865C81.5589 199.433 79.0183 200.617 77.897 203.112C76.9348 205.226 77.3287 207.721 76.54 209.898C75.0972 213.89 70.438 215.341 66.0169 215.341Z" fill="#98B620"/>
<path d="M151.023 222.73C148.67 222.146 146.382 221.247 144.251 220.079C141.591 218.615 138.706 216.699 135.843 216.699C135.155 216.699 134.468 216.811 133.787 217.064C130.9 218.142 128.968 221.626 125.919 221.626C125.884 221.626 125.85 221.626 125.816 221.626C123.085 221.561 121.786 219.043 120.391 216.461C119.384 214.598 118.327 212.699 116.646 211.667C114.957 210.639 112.811 210.639 111.027 209.74C108.107 208.273 106.86 204.801 104.635 202.369C108.55 202.916 112.506 203.209 116.447 203.209C126.285 203.209 136.037 201.392 144.883 197.176C150.028 194.727 154.741 191.535 159.083 187.855C159.083 196.625 159.083 207.365 159.083 218.786C156.472 220.228 153.783 221.544 151.023 222.73" fill="#98B620"/>
<path d="M40.8165 127.597C41.9367 131.484 44.6601 136.021 48.6598 135.409C51.4135 134.988 53.1416 132.21 54.0464 129.574C54.9511 126.938 55.4931 124.026 57.4153 122.009C59.8104 119.495 63.6045 119.107 66.8412 117.848C72.3494 115.705 76.4274 110.811 78.8694 105.429C81.3113 100.045 82.323 94.1434 83.3116 88.3172C83.8085 85.3883 84.3061 82.3942 83.8051 79.4674C83.3034 76.5385 81.6058 73.6412 78.857 72.5168C73.8644 70.4744 68.5526 75.0751 66.2359 79.9454C63.9189 84.8177 62.8848 90.5365 58.997 94.276C55.7883 97.3628 51.2341 98.4935 46.9267 99.6158C42.6202 100.738 38.0784 102.134 35.1971 105.526C28.8376 113.014 38.7907 120.564 40.8165 127.597" fill="#A9C924"/>
<path d="M79.3579 172.842C76.4313 174.987 74.8784 178.86 75.5109 182.433C76.1435 186.006 78.931 189.108 82.4158 190.118C86.9066 191.419 91.6164 189.409 96.2742 189.004C101.323 188.569 106.31 190.04 111.267 191.091C116.225 192.14 121.577 192.738 126.206 190.676C130.835 188.615 134.222 183.037 132.257 178.367C129.555 171.943 121.453 172.221 115.889 170.418C110.125 168.551 107.209 164.493 102.496 161.166C98.4455 158.307 97.4495 158.138 94.2467 161.933C91.9232 164.683 91.4585 167.091 88.1091 169.064C85.3523 170.688 82.0021 170.905 79.3579 172.842Z" fill="#A9C924"/>
<path d="M155.603 93.5937C152.593 97.7249 148.726 101.509 147.503 106.472C146.34 111.186 147.981 116.484 151.606 119.714C155.23 122.946 160.68 123.971 165.231 122.278C170.723 120.234 174.555 114.755 180.24 113.327C185.148 112.096 190.741 114.557 193.149 119.008C194.442 113.729 193.476 107.939 190.541 103.366C187.603 98.7945 182.739 95.5056 177.404 94.4844C174.923 94.0106 172.146 93.9074 170.324 92.1598C168.652 90.5532 168.318 88.0413 168.095 85.7356C167.742 82.0866 165.723 75.7825 161.148 79.1493C158.202 81.3181 158.096 90.1721 155.603 93.5937" fill="#A9C924"/>
<path d="M74.9353 165.735C67.4998 163.811 60.6634 158.442 56.5303 151.643C58.6113 151.003 60.6566 150.127 62.6357 149.259C66.1238 147.731 70.0842 145.619 70.6633 141.854C71.1181 138.891 69.2148 135.935 69.6951 132.975C70.1748 130.033 72.8948 127.949 75.6847 126.896C78.4752 125.845 81.5045 125.51 84.2559 124.361C93.0745 120.674 96.4517 110.175 98.8083 100.913C100.204 95.4255 101.423 89.0182 97.9035 84.5838C96.808 83.2047 95.2033 81.5981 95.9533 80.0042C96.6269 78.5724 98.619 78.5471 100.018 77.8101C101.863 76.8373 102.41 74.7275 102.065 72.622C102.946 70.1521 101.314 67.1095 99.1422 65.383C96.6795 63.4416 93.5551 62.3677 91.345 60.1442C91.2199 60.0179 91.0997 59.8936 90.9856 59.7694C90.9593 59.6683 90.9344 59.5652 90.9123 59.462C97.2019 56.8553 104.048 55.3603 110.757 55.3603C116.147 55.3603 121.449 56.3268 126.294 58.4555C130.666 60.3758 134.409 64.2101 135.21 68.9161C136.082 74.0369 133.416 79.1409 130.001 83.051C126.586 86.9632 122.366 90.1342 119.123 94.1895C113.5 101.222 111.254 110.344 109.92 119.25C108.586 128.155 107.987 137.266 105.027 145.77C104.909 146.109 104.786 146.448 104.66 146.785C104.131 146.634 103.592 146.564 103.051 146.564C100.326 146.564 97.535 148.341 95.6926 150.523C93.2967 153.357 91.7783 156.892 89.1398 159.503C86.5407 162.074 83.2351 163.445 79.7099 164.481C78.2468 164.678 76.8278 164.984 75.5554 165.582C75.349 165.632 75.1425 165.685 74.9353 165.735" fill="#A4E8FF"/>
<path d="M56.5304 151.643C55.9191 150.641 55.3672 149.603 54.8813 148.543C55.4595 148.373 56.0334 148.192 56.6051 148.011C61.3871 146.526 66.9907 144.096 67.6538 139.14C68.2212 134.91 64.7651 130.254 67.0221 126.624C69.0586 123.342 73.8571 123.862 77.6602 123.198C84.353 122.03 89.167 116.332 93.3814 110.999C95.3695 108.489 97.4686 105.396 96.4749 102.349C95.9856 100.881 94.8012 99.6179 94.7698 98.0724C94.6908 95.0887 98.8109 93.32 98.842 90.3364C98.9054 85.902 90.5397 85.0977 90.7298 80.678C90.8399 78.3892 93.3182 77.0311 95.5274 76.4479C97.7374 75.8646 100.262 75.4541 101.573 73.5759C101.784 73.2706 101.947 72.9505 102.065 72.622C102.41 74.7276 101.863 76.8374 100.018 77.8102C98.619 78.5471 96.6269 78.5724 95.9534 80.0042C95.2034 81.5982 96.808 83.2047 97.9036 84.5839C101.423 89.0183 100.204 95.4256 98.8083 100.913C96.4518 110.175 93.0746 120.674 84.256 124.361C81.5046 125.51 78.4753 125.845 75.6847 126.896C72.8948 127.949 70.1748 130.033 69.6952 132.975C69.2149 135.935 71.1181 138.891 70.6633 141.854C70.0843 145.619 66.1239 147.731 62.6357 149.259C60.6567 150.127 58.6113 151.003 56.5304 151.643V151.643ZM90.9856 59.7695C90.909 59.6874 90.8351 59.6074 90.7635 59.5253C90.8128 59.5042 90.8629 59.4831 90.9124 59.4621C90.9345 59.5652 90.9593 59.6684 90.9856 59.7695Z" fill="#9DDCF1"/>
<path d="M54.8812 148.543C54.8153 148.4 54.7505 148.255 54.6871 148.11C52.7261 143.642 51.6815 138.917 51.3124 134.093C52.5832 132.945 53.4772 131.231 54.0463 129.574C54.9511 126.938 55.4931 124.026 57.4153 122.009C59.8104 119.495 63.6045 119.107 66.8412 117.848C72.3494 115.705 76.4273 110.811 78.8694 105.429C81.3112 100.045 82.323 94.1434 83.3116 88.3172C83.8085 85.3883 84.306 82.3941 83.8051 79.4674C83.3033 76.5385 81.6058 73.6412 78.857 72.5168C78.0221 72.1757 77.179 72.0199 76.3418 72.0199C74.4327 72.0199 72.5583 72.8305 70.9018 74.1002C71.9447 72.8537 73.0394 71.6451 74.1876 70.4828C78.6555 65.96 84.4212 62.1763 90.7635 59.5253C90.835 59.6074 90.909 59.6874 90.9856 59.7695C91.0997 59.8938 91.22 60.018 91.345 60.1443C93.5551 62.3679 96.6795 63.4417 99.1422 65.3831C101.314 67.1097 102.946 70.1522 102.065 72.6221C101.947 72.9506 101.784 73.2706 101.573 73.5759C100.262 75.4541 97.7374 75.8647 95.5274 76.4479C93.3182 77.0312 90.8399 78.3893 90.7298 80.6781C90.5396 85.0977 98.9054 85.9021 98.842 90.3365C98.8108 93.3201 94.6908 95.0888 94.7698 98.0724C94.8011 99.6179 95.9855 100.881 96.4749 102.349C97.4685 105.396 95.3694 108.489 93.3813 110.999C89.167 116.332 84.353 122.03 77.6601 123.198C73.857 123.862 69.0586 123.342 67.0221 126.624C64.7651 130.254 68.2212 134.91 67.6537 139.14C66.9907 144.096 61.3871 146.526 56.6051 148.011C56.0334 148.192 55.4594 148.373 54.8812 148.543" fill="#B5CD53"/>
<path d="M75.1417 165.788C75.0735 165.771 75.0036 165.754 74.9353 165.736C75.1425 165.685 75.3491 165.632 75.5554 165.582C75.4156 165.647 75.2783 165.717 75.1417 165.788ZM79.71 164.481C83.2352 163.445 86.5407 162.074 89.1399 159.503C91.7784 156.892 93.2967 153.357 95.6927 150.523C97.5351 148.341 100.326 146.564 103.051 146.564C103.592 146.564 104.131 146.634 104.66 146.785C104.266 147.832 103.827 148.868 103.346 149.887C102.958 149.847 102.568 149.826 102.179 149.826C99.0435 149.826 95.9576 151.123 94.3594 153.772C92.971 156.06 92.8122 158.981 91.1238 161.048C88.5419 164.243 83.9359 163.912 79.71 164.481Z" fill="#9DDCF1"/>
<path d="M80.8103 166.504C78.9063 166.504 77.0064 166.256 75.1417 165.788C75.2783 165.717 75.4156 165.647 75.5554 165.582C76.8278 164.984 78.2468 164.678 79.71 164.481C83.9359 163.912 88.5419 164.243 91.1237 161.048C92.8122 158.981 92.971 156.06 94.3594 153.771C95.9576 151.123 99.0435 149.826 102.179 149.826C102.568 149.826 102.958 149.847 103.346 149.887C101.665 153.443 99.4547 156.778 96.7322 159.516C96.1582 159.878 95.5495 160.453 94.8275 161.261C92.7211 163.011 90.3554 164.413 87.7375 165.333C85.4633 166.133 83.1347 166.504 80.8103 166.504" fill="#B5CD53"/>
<path d="M59.1128 94.1643C60.9207 89.7657 63.0404 85.5082 65.5416 81.5097C63.6901 85.9504 62.5015 90.8227 59.1128 94.1643Z" fill="#B5CD53"/>
<path d="M51.3125 134.093C50.6478 125.407 52.1735 116.391 54.4865 107.914C55.7556 103.265 57.2722 98.6409 59.1129 94.1644C62.5017 90.8229 63.6903 85.9505 65.5417 81.5098C67.162 78.922 68.941 76.4396 70.9019 74.1002C72.5584 72.8306 74.4328 72.0199 76.3419 72.0199C77.1791 72.0199 78.0222 72.1757 78.8571 72.5168C81.6059 73.6412 83.3034 76.5385 83.8052 79.4674C84.3061 82.3942 83.8086 85.3883 83.3117 88.3172C82.3231 94.1434 81.3113 100.045 78.8695 105.429C76.4274 110.811 72.3495 115.705 66.8413 117.848C63.6046 119.107 59.8105 119.495 57.4154 122.009C55.4932 124.026 54.9512 126.938 54.0464 129.574C53.4773 131.231 52.5833 132.945 51.3125 134.093" fill="#BCD554"/>
<path d="M94.8274 161.261C95.5494 160.453 96.1581 159.878 96.7321 159.516C96.1228 160.128 95.4877 160.712 94.8274 161.261Z" fill="#BCD554"/>
<path d="M139.083 57.508L135.65 56.3184C133.304 55.5056 132.061 52.9431 132.875 50.5974L137.596 36.9848C138.411 34.6371 140.973 33.3969 143.318 34.2096L146.751 35.3993C149.097 36.2141 150.34 38.7766 149.527 41.1223L144.805 54.735C143.991 57.0806 141.428 58.3229 139.083 57.508" fill="#659FA6"/>
<path d="M119.345 237.077V267.478H102.315V237.077H119.345Z" fill="#659FA6"/>
<path d="M168.842 279.252V283.483H52.6432V279.252C52.6432 279.252 59.6516 278.037 72.657 273.001C73.7147 272.59 74.8037 272.165 75.9239 271.708C91.0134 265.583 104.571 253.067 104.571 253.067L110.743 253.099L116.914 253.067C116.914 253.067 125.312 260.833 136.249 267.114C139.217 268.819 142.357 270.396 145.561 271.708C160.651 277.831 168.842 279.252 168.842 279.252Z" fill="#659FA6"/>
<path d="M148.94 49.7891L153.548 40.9182C152.112 40.3497 150.676 39.8296 149.223 39.3411L146.714 48.9847L148.94 49.7891" fill="#55868C"/>
<path d="M121.46 243.407C120.766 243.47 120.055 243.501 119.345 243.518V249.026L102.315 244.796V242.838L119.345 243.343L121.46 243.407Z" fill="#55868C"/>
<path d="M168.842 279.252V283.483H52.6432V279.252C52.6432 279.252 59.6516 278.037 72.657 273.001C73.6671 273.317 74.6613 273.649 75.6714 273.965C92.2447 279.078 110.27 279.442 127.031 274.991C130.772 273.98 134.607 272.449 135.997 268.535C136.155 268.078 136.234 267.604 136.249 267.114C139.217 268.819 142.357 270.396 145.561 271.708C160.651 277.831 168.842 279.252 168.842 279.252Z" fill="#55868C"/>
<path d="M56.1174 80.1474C53.8038 82.8067 50.5311 83.7458 48.8095 82.2466C47.0872 80.7475 47.5675 77.3785 49.8813 74.7191C52.1958 72.0619 55.4676 71.1228 57.19 72.6199C58.9113 74.1212 58.4319 77.4901 56.1174 80.1474Z" fill="#91AD1F"/>
<path d="M63.2847 73.1252C62.1529 74.4243 60.5522 74.8855 59.71 74.1527C58.8678 73.4179 59.1023 71.7713 60.2349 70.4701C61.3667 69.1709 62.9663 68.7098 63.8085 69.4446C64.6508 70.1774 64.4164 71.826 63.2847 73.1252" fill="#91AD1F"/>
<path d="M42.8751 65.1156C42.5808 65.642 53.5397 79.3853 53.5397 79.3853L47.1333 62.8226L42.8751 65.1156Z" fill="#7C7669"/>
<path d="M51.2375 61.4792L51.3329 61.5992C51.8567 62.572 49.701 64.7513 46.5222 66.4611C44.1501 67.7392 41.8792 68.3961 40.6577 68.2424C40.2448 68.194 39.9496 68.0487 39.8163 67.8023L39.7439 67.5939L30.1173 57.0743L47.3923 47.7718L51.2375 61.4792" fill="#FFA70B"/>
<path d="M51.2374 61.4792L51.3328 61.5992C51.8567 62.572 49.701 64.7513 46.5222 66.4611C44.15 67.7392 41.8791 68.3961 40.6577 68.2424C43.2172 65.6588 44.9609 62.4394 45.4866 59.2052C45.9299 56.4237 45.4791 53.6738 44.2496 51.3345C44.034 50.9176 43.71 50.4438 43.3768 49.9343L47.3922 47.7718L51.2374 61.4792" fill="#DB9009"/>
<path d="M47.3914 47.7717C48.177 49.2288 44.9454 52.4925 40.1758 55.0613C35.4054 57.6301 30.9021 58.5313 30.1165 57.0742C29.332 55.6171 32.5628 52.3535 37.3332 49.7826C42.1037 47.2137 46.6069 46.3146 47.3914 47.7717" fill="#FFBF4F"/>
<path d="M40.1979 65.5262C39.7317 65.5262 39.2916 65.2736 38.937 65.0146C37.4393 63.945 34.7111 61.7299 34.6848 59.7443C34.6551 57.5671 38.6328 56.9459 40.3962 56.308C40.6495 56.2174 40.9144 56.1226 41.1702 56.1226C41.1989 56.1226 41.2277 56.1247 41.2566 56.1268C41.9704 56.19 42.1531 56.9796 42.1752 57.6324C42.2435 59.6495 42.0864 61.7025 41.708 63.7534C41.5905 64.3956 41.3429 65.162 40.6611 65.4357C40.5055 65.4989 40.3501 65.5262 40.1979 65.5262" fill="#FDB430"/>
<path d="M60.3055 61.1403C59.9667 61.3024 60.6371 72.2747 60.6371 72.2747L63.3093 61.4961L60.3055 61.1403" fill="#7C7669"/>
<path d="M65.8928 62.2835L65.8977 62.3804C65.8162 63.0647 63.9302 63.4058 61.689 63.1405C60.0159 62.9405 58.6178 62.4604 58.0478 61.9445C57.8537 61.7698 57.7541 61.5908 57.7756 61.416L57.8126 61.2834L56.6659 52.4399L68.8489 53.8864L65.8928 62.2835Z" fill="#FFA70B"/>
<path d="M65.8929 62.2835L65.8977 62.3804C65.8162 63.0647 63.9302 63.4058 61.6891 63.1405C60.0159 62.9405 58.6178 62.4604 58.0479 61.9445C60.2867 61.5403 62.3346 60.5212 63.7666 59.0536C64.9921 57.7902 65.7497 56.2194 65.9611 54.5792C66.0005 54.2907 66.0047 53.9306 66.0169 53.5495L68.8489 53.8864L65.8929 62.2835" fill="#DB9009"/>
<path d="M68.8489 53.8865C68.7272 54.914 65.9011 55.4236 62.5369 55.0235C59.1722 54.6256 56.5434 53.4675 56.6659 52.4399C56.7876 51.4124 59.6137 50.9029 62.9779 51.3029C66.3426 51.7009 68.9714 52.8569 68.8489 53.8865Z" fill="#FFBF4F"/>
<path d="M59.2405 60.5295C59.1805 60.5295 59.1196 60.5232 59.0579 60.5085C58.6433 60.4116 58.4435 60.0179 58.3275 59.6747C57.9451 58.5882 57.3437 56.4741 58.0436 55.4487C58.2913 55.0866 58.6926 54.956 59.1615 54.956C60.1484 54.956 61.4341 55.5351 62.2013 55.7414L62.7073 55.9583C63.0495 56.2468 62.8593 56.7163 62.6366 57.0595C61.9464 58.1144 61.129 59.1103 60.1979 60.0242C59.9477 60.2705 59.6138 60.5295 59.2405 60.5295Z" fill="#FDB430"/>
<path d="M121.417 2.35833L121.285 0.246361C123.413 0.111603 125.566 0.0295015 127.686 2.31648e-05L127.715 2.11621C125.629 2.14568 123.511 2.22778 121.417 2.35833ZM138.216 2.39627C136.129 2.25309 134.01 2.16254 131.92 2.12464L131.958 0.00845376C134.084 0.0463544 136.238 0.139062 138.361 0.282243L138.216 2.39627ZM110.97 3.43426L110.668 1.33925C112.772 1.03815 114.911 0.781202 117.029 0.583276L117.228 2.68887C115.145 2.88679 113.038 3.13737 110.97 3.43426V3.43426ZM148.656 3.5417C146.599 3.22586 144.497 2.95844 142.403 2.74788L142.615 0.642291C144.746 0.857061 146.885 1.12865 148.974 1.44659L148.656 3.5417ZM100.636 5.33351L100.173 3.26791C102.246 2.80257 104.358 2.3794 106.453 2.01093L106.818 4.0975C104.757 4.45966 102.678 4.87449 100.636 5.33351V5.33351ZM158.954 5.5672C157.554 5.2282 156.146 4.91447 154.734 4.6239C154.09 4.49335 153.444 4.36706 152.795 4.24493L153.188 2.16463C153.846 2.28886 154.504 2.41727 155.158 2.55203C156.598 2.8447 158.029 3.16471 159.454 3.51003L158.954 5.5672ZM90.4862 8.04127L89.857 6.01782C91.891 5.38825 93.9663 4.80083 96.0224 4.27022L96.5522 6.32102C94.5264 6.8432 92.4865 7.42223 90.4862 8.04127V8.04127ZM169.048 8.46033C167.066 7.80128 165.038 7.18224 163.023 6.62215L163.591 4.58185C165.64 5.15036 167.701 5.78206 169.718 6.45375L169.048 8.46033ZM80.5809 11.5387L79.7946 9.5742C81.7768 8.7846 83.7961 8.03499 85.8006 7.34647L86.4915 9.34678C84.5175 10.0269 82.5294 10.7639 80.5809 11.5387V11.5387ZM178.869 12.1873C176.92 11.3577 174.951 10.5723 173.012 9.85426L173.748 7.86865C175.717 8.59929 177.72 9.39526 179.701 10.2396L178.869 12.1873ZM70.9873 15.8173L70.048 13.918C71.9496 12.9789 73.9023 12.0714 75.8557 11.2187L76.7036 13.1579C74.7814 13.9981 72.8577 14.8908 70.9873 15.8173ZM188.349 16.6974C186.502 15.7267 184.603 14.7855 182.701 13.8991L183.596 11.9809C185.527 12.8821 187.46 13.836 189.336 14.8235L188.349 16.6974ZM61.7712 20.8518L60.679 19.0367C62.4951 17.946 64.3695 16.8827 66.2498 15.8741L67.2516 17.7397C65.4018 18.7314 63.5586 19.78 61.7712 20.8518V20.8518ZM197.443 21.9551C195.664 20.8307 193.844 19.74 192.038 18.7125L193.084 16.8722C194.92 17.9144 196.769 19.022 198.576 20.1632L197.443 21.9551ZM53.0052 26.6295L51.7639 24.9134C53.4829 23.6732 55.2619 22.4583 57.0559 21.2981L58.2066 23.0752C56.444 24.2165 54.6936 25.4104 53.0052 26.6295ZM206.095 27.9097C204.423 26.6589 202.696 25.4293 200.961 24.2544L202.149 22.5004C203.911 23.6943 205.665 24.945 207.364 26.2189L206.095 27.9097ZM214.252 34.5297C212.675 33.1442 211.049 31.7819 209.419 30.4806L210.744 28.8277C212.399 30.1479 214.05 31.5334 215.65 32.94L214.252 34.5297ZM221.859 41.775C220.392 40.2632 218.88 38.7767 217.366 37.3575L218.814 35.812C220.354 37.2543 221.891 38.764 223.382 40.3011L221.859 41.775ZM228.858 49.6015C227.521 47.9802 226.134 46.3779 224.733 44.8387L226.3 43.4132C227.723 44.9797 229.134 46.6074 230.492 48.256L228.858 49.6015ZM235.198 57.967C234.011 56.2573 232.76 54.5454 231.478 52.8841L233.156 51.5934C234.457 53.28 235.731 55.0192 236.939 56.7605L235.198 57.967ZM240.822 66.8295C239.784 65.025 238.679 63.2163 237.537 61.4539L239.317 60.3063C240.477 62.0961 241.601 63.9364 242.658 65.7724L240.822 66.8295ZM243.292 71.3228L242.86 70.4974L244.73 69.5078L245.174 70.35L243.292 71.3228Z" fill="#FBC030"/>
<path d="M53.0931 25.2988C53.5199 22.1994 51.7163 18.0766 49.9512 15.6047C49.9956 20.6834 49.0003 25.8989 46.402 30.367C51.3583 29.0068 56.6413 29.7353 61.5837 30.9418C59.4105 28.5078 56.3936 25.8442 53.0931 25.2988" fill="#FBC030"/>
<path d="M280.239 132.612L279.79 135.305L258.353 263.757L257.412 269.421L252.83 268.636L271.418 136.558L272.016 132.297L272.164 131.24L280.239 132.612" fill="#46535E"/>
<path d="M279.79 135.306L258.353 263.757L258.181 263.675C257.667 263.347 257.656 262.584 257.709 261.961C257.926 259.268 258.063 256.632 258.29 253.945C261.265 218.622 270.61 184.256 275.609 149.183C276.007 146.404 276.367 143.5 275.52 140.828C274.794 138.544 273.36 137.148 271.419 136.558L272.016 132.297C272.593 132.341 273.17 132.457 273.73 132.596C275.874 133.12 278.011 133.975 279.79 135.306Z" fill="#39444D"/>
<path d="M285.911 103.81L280.721 137.575L278.773 137.247L270.218 135.796L275 104.69L275.409 102.031L285.911 103.81Z" fill="#588B91"/>
<path d="M257.602 271.55L259.455 260.443L253.582 259.445L251.879 271.55H257.602Z" fill="#588B91"/>
<path d="M285.911 103.81L282.159 128.22L280.721 137.575L278.773 137.247C278.552 136.424 278.689 135.546 278.826 134.705C279.942 127.54 279.98 120.236 279.63 112.984C279.529 110.98 279.382 108.895 278.403 107.175C277.609 105.785 276.413 105.189 275.011 104.694L275 104.69L275.409 102.031L276.695 102.248L285.911 103.81" fill="#3B5D61"/>
<path d="M285.911 103.81L282.159 128.22L281.97 128.576C282.414 122.428 282.669 116.265 282.721 110.102C282.732 108.912 282.726 107.665 282.197 106.615C281.05 104.318 278.923 105.118 277.339 103.837C276.626 103.265 276.493 102.726 276.695 102.248L285.911 103.81Z" fill="#2D474A"/>
<path d="M275.32 132.739C274.566 132.739 273.901 132.139 273.575 131.423C273.244 130.703 273.191 129.881 273.16 129.081C272.993 124.704 273.337 120.305 274.177 116.014C274.503 114.346 274.747 111.186 275.804 109.853C276.162 109.4 276.495 109.215 276.792 109.215C277.527 109.215 278.032 110.361 278.156 111.354C278.919 117.425 278.731 123.624 277.607 129.631C277.346 131.025 276.687 132.726 275.335 132.739C275.331 132.739 275.326 132.739 275.32 132.739" fill="#88ADB1"/>
<path d="M300.297 132.396L300.747 135.089L322.182 263.54L323.123 269.202L327.705 268.419L309.117 136.342L308.519 132.08L308.372 131.023L300.297 132.396" fill="#46535E"/>
<path d="M300.747 135.089L322.182 263.54L322.357 263.456C322.871 263.13 322.881 262.367 322.829 261.744C322.61 259.051 322.473 256.415 322.245 253.728C319.272 218.405 309.928 184.039 304.927 148.967C304.531 146.185 304.171 143.281 305.017 140.612C305.742 138.327 307.176 136.931 309.117 136.341L308.519 132.08C307.942 132.124 307.367 132.242 306.805 132.379C304.662 132.903 302.524 133.76 300.747 135.089Z" fill="#39444D"/>
<path d="M294.624 103.593L299.817 137.359L301.762 137.03L310.319 135.577L305.535 104.471L305.129 101.812L294.624 103.593Z" fill="#588B91"/>
<path d="M322.934 271.333L321.081 260.226L326.956 259.228L328.659 271.333H322.934Z" fill="#588B91"/>
<path d="M294.624 103.593L298.376 128.001L299.817 137.359L301.762 137.03C301.985 136.207 301.848 135.329 301.71 134.489C300.594 127.323 300.556 120.019 300.905 112.765C301.006 110.763 301.154 108.678 302.133 106.958C302.927 105.568 304.123 104.972 305.525 104.478L305.535 104.471L305.129 101.812L303.842 102.031L294.624 103.593" fill="#3B5D61"/>
<path d="M294.624 103.593L298.376 128.001L298.566 128.359C298.122 122.211 297.869 116.048 297.816 109.885C297.806 108.693 297.81 107.448 298.338 106.396C299.488 104.098 301.615 104.901 303.196 103.621C303.912 103.048 304.042 102.509 303.842 102.031L294.624 103.593Z" fill="#2D474A"/>
<path d="M305.215 132.524C305.211 132.524 305.207 132.522 305.201 132.522C303.851 132.509 303.19 130.808 302.929 129.414C301.804 123.407 301.619 117.208 302.379 111.138C302.505 110.144 303.011 108.998 303.746 108.998C304.04 108.998 304.373 109.184 304.733 109.636C305.79 110.969 306.032 114.13 306.359 115.797C307.199 120.088 307.544 124.487 307.376 128.865C307.344 129.663 307.291 130.486 306.963 131.206C306.635 131.922 305.971 132.524 305.215 132.524" fill="#88ADB1"/>
<path d="M285.92 130.21L286.979 213.699L287.682 269.093H292.329L292.449 259.62L292.567 250.507L293.683 162.701L294.096 130.21H285.92" fill="#46535E"/>
<path d="M286.979 213.699C286.937 191.177 286.888 168.654 286.842 146.13C286.842 144.016 287.265 141.313 289.228 140.869C290.472 140.591 291.735 141.513 292.329 142.705C292.921 143.888 293.001 145.273 293.064 146.608C293.312 151.971 293.519 157.334 293.683 162.701L294.096 130.21H285.92L286.979 213.699Z" fill="#39444D"/>
<path d="M284.688 135.032H295.328V100.828H284.688V135.032Z" fill="#588B91"/>
<path d="M291.478 132.57C290.634 132.57 289.773 132.04 289.263 131.299C288.587 130.317 288.394 129.067 288.276 127.862C288.076 125.841 287.924 112.449 290.944 112.449C291.091 112.449 291.247 112.483 291.409 112.548C293.477 113.395 293.651 118.115 293.879 119.998C294.239 122.996 294.254 126.043 293.915 129.046C293.767 130.351 293.418 131.846 292.281 132.389C292.024 132.513 291.752 132.57 291.478 132.57" fill="#88ADB1"/>
<path d="M284.688 101.09V135.032H285.073C285.496 134.659 285.656 133.792 285.635 133.12C285.402 125.832 286.038 118.524 287.507 111.397C287.842 109.807 288.524 107.916 290.059 107.703C291 107.577 291.916 108.204 292.445 109.034C292.973 109.864 293.186 110.864 293.371 111.837C294.134 115.827 294.645 119.865 294.911 123.925C294.959 124.681 294.721 128.347 295.33 130.505V100.829H284.888L284.688 101.09" fill="#3B5D61"/>
<path d="M287.179 271.333L287.034 259.891H292.982L292.837 271.333H287.179Z" fill="#588B91"/>
<path d="M282.761 97.7249H298.852V80.8036H282.761V97.7249Z" fill="#659FA6"/>
<path d="M298.852 84.6513H282.761V86.0705L298.852 84.9313V84.6513Z" fill="#3B5D61"/>
<path d="M282.761 90.8164V92.4672H298.852V91.2607L282.761 90.8164Z" fill="#3B5D61"/>
<path d="M203.075 61.9804L203.233 63.2206L204.8 75.4141L217.917 73.8159L223.234 73.1716L224.382 73.0326L270.671 67.4149L268.601 51.3092L221.303 59.0094L216.795 59.7421L203.075 61.9804" fill="#477075"/>
<path d="M279.064 59.7717V84.6514H302.737V59.7717H279.064Z" fill="#477075"/>
<path d="M279.064 65.2104V77.5386C281.089 74.6856 283.561 72.1483 286.549 70.4954C289.889 68.6551 293.942 68.015 297.498 69.35C299.286 70.0174 300.789 71.2071 302.027 72.7042C302.265 72.9926 302.503 73.2327 302.737 73.399V65.044C301.922 63.8817 300.916 62.93 299.827 62.3742C298.307 61.5951 296.572 61.435 294.883 61.4182C290.245 61.3614 285.593 62.2794 281.281 64.0986C280.523 64.4166 279.767 64.7766 279.064 65.2104" fill="#3B5D61"/>
<path d="M203.233 63.2206L204.8 75.4141L224.382 73.0326C224.403 72.7989 224.409 72.5589 224.403 72.321C224.241 65.1493 218.937 65.901 214.243 66.6506C212.664 66.9053 211.154 67.158 209.931 67.1075C207.265 67.0022 204.471 65.6736 203.233 63.2206Z" fill="#3B5D61"/>
<path d="M216.795 59.7421L217.917 73.8159L223.234 73.1716L221.303 59.0094L216.795 59.7421" fill="#355357"/>
<path d="M218.107 57.0723L219.33 66.5959L219.366 66.8801L220.568 76.2248L301.779 66.358L307.955 65.6126L308.938 65.4884L310.166 65.3388L314.478 64.8167L311.526 41.8594L302.916 43.2617L300.324 43.6828L218.107 57.0723" fill="#588B91"/>
<path d="M219.366 66.8801L220.568 76.2248L308.938 65.4884C310.879 62.8753 311.362 59.3485 308.33 56.9565C303.763 53.3475 295.323 56.6954 290.508 57.6682C274.634 60.8729 258.633 63.3806 242.563 65.1893C237.971 65.7052 233.373 66.1621 228.77 66.5622C227.854 66.6464 222.885 66.6401 219.366 66.8801" fill="#4C787D"/>
<path d="M300.324 43.6827L301.779 66.3578L307.955 65.6125L302.916 43.2616L300.324 43.6827Z" fill="#3B5D61"/>
<path d="M302.916 41.1876L304.594 54.2023L304.758 55.4593L306.35 67.8697L365.776 61.1613L370.613 60.6159L371.55 60.5107L372.327 60.4222L374.523 60.178L374.089 56.8111L372.921 47.7107L370.592 29.5837L367.93 30.0385L362.174 31.0281L302.916 41.1876" fill="#659FA6"/>
<path d="M304.758 55.4593L305.9 64.3765L306.35 67.8697L371.55 60.5107L372.327 60.4222C372.634 59.8811 372.889 59.3378 373.089 58.7799C375.54 52.162 370.904 44.8851 360.576 47.1107C344.177 50.6376 327.977 53.6022 311.212 54.3918C309.043 54.4971 306.731 54.6318 304.758 55.4593Z" fill="#5A8E94"/>
<path d="M328.236 47.7634C326.53 47.7634 324.418 47.3529 324.025 45.6263C323.597 43.7502 325.625 42.3605 327.337 41.6593C335.376 38.3704 344.259 35.7763 352.911 35.2478C353.172 35.231 353.454 35.2226 353.745 35.2226C356.487 35.2226 360.281 36.0311 360.22 39.6295C360.152 43.5228 354.954 44.6556 352.17 45.1841C344.301 46.6748 336.334 47.6855 328.339 47.7634C328.303 47.7634 328.269 47.7634 328.236 47.7634Z" fill="#92BBC0"/>
<path d="M254.854 58.1483C253.957 58.1483 252.98 57.9988 252.554 57.2029C251.775 55.7564 253.635 54.3498 255.14 53.8424C264.377 50.7219 273.901 48.5321 283.534 47.3045C285.145 47.0982 288.379 46.2517 291.11 46.2517C293.032 46.2517 294.704 46.6707 295.386 48.0309C297.73 52.7117 290.291 54.7962 287.507 55.2089C276.792 56.7923 265.994 57.7714 255.178 58.1441C255.073 58.1483 254.963 58.1483 254.854 58.1483" fill="#88ADB1"/>
<path d="M211.426 64.9809C210.634 64.9809 209.84 64.9598 209.051 64.9156C208.482 64.8819 207.779 64.7282 207.64 64.1492C207.497 63.5533 208.08 63.0606 208.598 62.7785C209.962 62.0331 211.841 61.1424 213.563 61.1424C214.11 61.1424 214.641 61.2308 215.136 61.4456C215.864 61.7593 216.313 62.2668 216.161 63.1301C215.913 64.5471 214.46 64.8883 213.31 64.9388C212.683 64.9683 212.053 64.9809 211.426 64.9809" fill="#7C999D"/>
<path d="M305.9 64.3765L306.35 67.8697L371.55 60.5107L372.327 60.4222C372.634 59.8811 372.889 59.3378 373.089 58.7799L373.095 58.7525C373.413 55.3983 370.815 49.8985 367.014 51.2818C365.307 51.9051 363.702 54.196 362.125 55.2319C360.274 56.4511 358.253 57.3838 356.173 58.085C351.57 59.6368 346.708 60.1043 341.886 60.5612C330.866 61.6013 319.839 62.6415 308.812 63.6859C307.826 63.7764 306.759 63.9196 305.9 64.3765" fill="#528287"/>
<path d="M362.174 31.0281L365.776 61.1613L370.613 60.6159L367.93 30.0385L362.174 31.0281Z" fill="#355357"/>
<path d="M363.115 24.8756L368.503 66.7958L382 64.8776L381.657 62.2183L376.614 22.9574L370.455 23.8312L363.115 24.8756" fill="#588B91"/>
<path d="M363.115 24.8756L368.503 66.7958L382 64.8776L381.657 62.2183C380.503 61.1571 379.021 60.4433 377.705 59.5758C372.085 55.872 369.105 48.8119 368.482 41.8698C368.147 38.1871 368.396 34.4834 368.888 30.8344C369.175 28.7372 370.084 26.1663 370.455 23.8312L363.115 24.8756" fill="#507F85"/>
<path d="M285.383 75.6205C285.383 78.7094 287.764 81.213 290.701 81.213C293.639 81.213 296.02 78.7094 296.02 75.6205C296.02 72.5337 293.639 70.0301 290.701 70.0301C287.764 70.0301 285.383 72.5337 285.383 75.6205Z" fill="#659FA6"/>
<path d="M287.907 76.7743C288.514 78.3956 290.255 79.1936 291.798 78.5577C293.34 77.9218 294.1 76.09 293.493 74.4686C292.889 72.8473 291.148 72.0493 289.604 72.6852C288.063 73.3211 287.303 75.153 287.907 76.7743Z" fill="#3B5D61"/>
<path d="M273.252 104.423H307.822V92.4686H273.252V104.423Z" fill="#659FA6"/>
<path d="M273.252 93.4252V104.423H307.822V94.1706C307.192 95.1497 306.529 96.8068 305.889 97.4574C304.647 98.7208 303.118 99.6893 301.493 100.306C297.688 101.747 293.525 101.557 289.487 101.351C283.943 101.062 277.544 100.289 274.518 95.3981C274.126 94.7707 273.718 94.0379 273.252 93.4252" fill="#528287"/>
<path d="M291.161 100.121C289.743 100.121 288.326 100.003 286.926 99.7673C285.623 99.5462 284.162 99.083 283.618 97.8196C281.826 93.6527 288.796 93.0716 294.035 93.0716C295.045 93.0716 295.991 93.0947 296.797 93.1158C297.604 93.1368 298.271 93.1579 298.724 93.1579C298.869 93.1579 298.991 93.1558 299.09 93.1516C299.284 93.141 299.482 93.1347 299.682 93.1347C300.987 93.1347 302.4 93.4021 302.889 94.6086C303.247 95.4909 302.893 96.5521 302.253 97.2343C301.613 97.9165 300.739 98.2913 299.876 98.6009C297.077 99.6094 294.119 100.121 291.161 100.121" fill="#92BBC0"/>
<path d="M8.86078 210.109C7.74544 208.298 6.66148 206.437 5.63901 204.573L7.49804 203.556C8.50051 205.388 9.56657 207.218 10.6646 208.999L8.86078 210.109ZM14.8297 218.952C13.563 217.23 12.3276 215.465 11.1613 213.707L12.9282 212.537C14.0763 214.267 15.291 216.002 16.538 217.699L14.8297 218.952ZM21.5059 227.284C20.1044 225.675 18.7307 224.016 17.4215 222.351L19.0853 221.041C20.3742 222.679 21.7272 224.311 23.1024 225.894L21.5059 227.284V227.284ZM28.8172 235.052C27.2898 233.552 25.7904 232.007 24.3541 230.461L25.9104 229.021C27.3209 230.544 28.7982 232.064 30.3016 233.542L28.8172 235.052V235.052ZM36.7237 242.213C35.087 240.842 33.4676 239.421 31.9139 237.991L33.3499 236.433C34.8781 237.842 36.4737 239.24 38.0849 240.591L36.7237 242.213V242.213ZM199.051 247.178L197.79 245.476L198.542 244.916L199.816 246.607L199.051 247.178V247.178ZM45.1724 248.738C43.4519 247.517 41.7261 246.226 40.0425 244.904L41.3494 243.24C43.0093 244.542 44.7068 245.811 46.398 247.011L45.1724 248.738V248.738ZM190.21 253.162L189.096 251.362C190.886 250.256 192.663 249.098 194.375 247.919L195.579 249.66C193.836 250.86 192.031 252.04 190.21 253.162ZM54.1064 254.571C52.292 253.488 50.4694 252.339 48.6895 251.155L49.8607 249.391C51.615 250.555 53.409 251.686 55.1937 252.751L54.1064 254.571ZM180.897 258.384L179.939 256.495C181.802 255.547 183.668 254.543 185.487 253.505L186.538 255.343C184.689 256.398 182.792 257.421 180.897 258.384V258.384ZM63.4836 259.672C61.5869 258.74 59.6771 257.739 57.8068 256.701L58.8374 254.853C60.6739 255.872 62.5525 256.855 64.4189 257.775L63.4836 259.672V259.672ZM171.193 262.824L170.39 260.866C172.333 260.07 174.275 259.22 176.166 258.335L177.063 260.254C175.142 261.153 173.167 262.018 171.193 262.824ZM73.2401 264.001C71.2604 263.218 69.2749 262.376 67.3445 261.5L68.2172 259.571C70.1188 260.435 72.0713 261.262 74.0223 262.033L73.2401 264.001ZM161.162 266.473L160.516 264.454C162.503 263.822 164.507 263.13 166.474 262.395L167.215 264.378C165.214 265.124 163.179 265.829 161.162 266.473V266.473ZM83.324 267.507C81.2991 266.897 79.2526 266.223 77.2391 265.505L77.9514 263.511C79.9313 264.216 81.9438 264.879 83.9367 265.477L83.324 267.507V267.507ZM150.873 269.312L150.389 267.25C152.437 266.77 154.491 266.24 156.493 265.669L157.072 267.705C155.04 268.284 152.954 268.825 150.873 269.312ZM93.6743 270.146C92.2406 269.847 90.8111 269.52 89.3883 269.169C88.736 269.009 88.0862 268.84 87.4373 268.67L87.9784 266.623C88.616 266.791 89.2574 266.956 89.8966 267.113C91.2947 267.459 92.6996 267.779 94.1086 268.076L93.6743 270.146V270.146ZM140.395 271.335L140.076 269.242C142.141 268.926 144.231 268.558 146.284 268.143L146.702 270.219C144.617 270.64 142.494 271.013 140.395 271.335V271.335ZM104.209 271.895C102.09 271.636 99.9548 271.318 97.8682 270.954L98.2318 268.867C100.286 269.228 102.384 269.539 104.465 269.796L104.209 271.895ZM129.788 272.525L129.635 270.413C131.73 270.261 133.843 270.057 135.911 269.809L136.164 271.912C134.062 272.163 131.916 272.371 129.788 272.525V272.525ZM114.847 272.765C112.722 272.679 110.57 272.54 108.452 272.348L108.642 270.24C110.726 270.426 112.842 270.565 114.933 270.649L114.847 272.765V272.765ZM120.178 272.872L119.115 272.868L119.136 270.75L120.178 270.754C121.93 270.754 123.685 270.72 125.435 270.649L125.522 272.765C123.742 272.837 121.959 272.872 120.178 272.872" fill="#FBC030"/>
<path d="M7.0053 204.796C9.98935 205.742 14.3616 204.666 17.098 203.346C12.0808 202.529 7.1089 200.663 3.14365 197.345C3.64288 202.457 2.02832 207.538 0 212.2C2.7678 210.473 5.90724 207.953 7.0053 204.796" fill="#FBC030"/>
<path d="M372.516 171.187C372.516 196.665 372.516 308.385 372.516 308.385C372.516 308.385 339.092 291.313 268.483 307.756C267.601 307.947 266.7 308.177 265.801 308.385C264.9 308.156 263.979 307.947 263.097 307.756C192.488 291.313 159.083 308.385 159.083 308.385C159.083 308.385 159.083 196.665 159.083 171.187C187.732 148.901 249.489 166.146 263.097 170.328C264.841 170.863 265.801 171.187 265.801 171.187C265.801 171.187 266.74 170.863 268.483 170.328C282.052 166.165 343.849 148.901 372.516 171.187Z" fill="#659FA6"/>
<path d="M369.518 169.58C369.518 194.348 369.518 302.968 369.518 302.968C369.518 302.968 337.014 286.369 268.344 302.355C267.489 302.542 266.611 302.763 265.736 302.968C264.86 302.747 263.965 302.542 263.108 302.355C194.44 286.369 161.954 302.968 161.954 302.968C161.954 302.968 161.954 194.348 161.954 169.58C189.814 147.912 249.874 164.679 263.108 168.744C264.803 169.265 265.736 169.58 265.736 169.58C265.736 169.58 266.651 169.265 268.344 168.744C281.542 164.698 341.64 147.912 369.518 169.58" fill="#0095A8"/>
<path d="M279.076 293.764C279.076 300.34 273.179 305.673 265.904 305.673C258.629 305.673 252.731 300.34 252.731 293.764C252.731 287.188 258.629 281.857 265.904 281.857C273.179 281.857 279.076 287.188 279.076 293.764Z" fill="#0095A8"/>
<path d="M366.991 166.881C366.991 191.645 366.991 300.245 366.991 300.245C366.991 300.245 335.304 283.649 268.361 299.632C267.525 299.82 266.672 300.041 265.818 300.245C264.963 300.024 264.091 299.82 263.255 299.632C196.314 283.649 164.643 300.245 164.643 300.245C164.643 300.245 164.643 191.645 164.643 166.881C191.802 145.216 250.354 161.979 263.255 166.045C264.908 166.565 265.818 166.881 265.818 166.881C265.818 166.881 266.708 166.565 268.361 166.045C281.226 161.998 339.814 145.216 366.991 166.881Z" fill="#C4BAA7"/>
<path d="M364.399 166.445C364.399 190.575 364.399 296.394 364.399 296.394C364.399 296.394 333.523 280.221 268.296 295.796C267.481 295.977 266.649 296.194 265.818 296.394C264.986 296.177 264.135 295.977 263.322 295.796C198.093 280.221 167.235 296.394 167.235 296.394C167.235 296.394 167.235 280.8 167.235 260.216V166.445C184.565 152.607 215.043 154.85 237.527 159.156C238.613 159.353 239.662 159.572 240.711 159.789C251.076 161.922 259.379 164.384 263.322 165.63C264.931 166.138 265.818 166.445 265.818 166.445C265.818 166.445 266.685 166.138 268.296 165.63C280.83 161.689 337.917 145.337 364.399 166.445" fill="#EDE1C9"/>
<path d="M268.287 165.63V295.794C267.473 295.975 266.641 296.192 265.809 296.392C264.978 296.175 264.127 295.975 263.312 295.794V165.63C264.923 166.136 265.809 166.443 265.809 166.443C265.809 166.443 266.677 166.136 268.287 165.63Z" fill="#B3A998"/>
<path d="M364.391 276.382C364.391 288.936 364.391 297.274 364.391 297.274C364.391 297.274 333.515 281.103 268.287 296.678V166.512C269.932 165.988 272.358 165.266 275.377 164.415C274.943 165.898 274.51 167.363 274.293 168.793C272.429 181.201 271.85 193.826 272.556 206.363C272.972 213.543 273.785 220.706 275.034 227.798C277.095 239.446 280.498 251.311 288.257 260.247C295.565 268.678 306.182 273.742 317.127 275.984C328.051 278.21 339.358 277.812 350.462 276.744C354.985 276.311 359.851 275.894 364.391 276.382Z" fill="#E0D5BE"/>
<path d="M167.226 276.382C167.226 288.936 167.226 297.274 167.226 297.274C167.226 297.274 198.104 281.103 263.331 296.678V166.512C261.684 165.988 259.261 165.266 256.239 164.415C256.673 165.898 257.109 167.363 257.326 168.793C259.187 181.201 259.766 193.826 259.061 206.363C258.646 213.543 257.831 220.706 256.582 227.798C254.521 239.446 251.121 251.311 243.361 260.247C236.053 268.678 225.434 273.742 214.492 275.984C203.566 278.21 192.261 277.812 181.154 276.744C176.633 276.311 171.767 275.894 167.226 276.382Z" fill="#E0D5BE"/>
<path d="M240.711 159.789C240.024 163.407 239.173 166.969 238.685 169.865C235.88 186.958 230.311 203.744 220.851 218.323C208.604 237.189 189.231 252.059 167.235 256.181V166.445C184.565 152.607 215.043 154.85 237.527 159.156C238.613 159.354 239.662 159.573 240.711 159.789" fill="#F7EBD2"/>
<path d="M290.925 159.789C291.611 163.407 292.462 166.969 292.95 169.865C295.753 186.958 301.324 203.744 310.785 218.323C323.031 237.189 342.404 252.059 364.399 256.181V166.445C347.07 152.607 316.592 154.85 294.108 159.156C293.022 159.354 291.973 159.573 290.925 159.789" fill="#F7EBD2"/>
<path d="M324.229 268.583C314.598 268.583 304.723 263.281 299.056 255.219C291.209 244.049 290.381 229.127 293.689 215.882C295.262 209.583 297.789 203.881 300.583 198.275C303.314 205.27 306.685 212.004 310.785 218.323C320.045 232.59 333.382 244.571 348.845 251.349C345.491 257.466 341.133 262.959 335.003 266.076C331.617 267.796 327.943 268.585 324.229 268.583Z" fill="#F0E7D3"/>
<path d="M348.845 251.349C333.382 244.571 320.045 232.59 310.785 218.323C306.685 212.004 303.314 205.27 300.583 198.275C302.76 193.908 305.1 189.6 307.273 185.113C311.079 177.255 310.25 168.726 320.696 165.847C322.401 165.378 324.149 165.163 325.905 165.163C330.061 165.163 334.256 166.369 337.989 168.269C350.591 174.682 358.285 188.529 359.942 202.571C361.601 216.611 357.933 230.807 352.435 243.832C351.366 246.363 350.187 248.904 348.845 251.349" fill="#F9EFDA"/>
<path d="M182.927 179.428C182.331 181.85 181.823 184.414 180.232 186.332C178.29 188.672 174.835 189.96 174.153 192.923C173.225 196.953 178.216 200.126 178.457 204.255C178.56 206.045 177.755 207.94 178.497 209.572C179.252 211.233 181.299 211.865 183.123 211.945C183.636 211.968 184.154 211.962 184.672 211.955C185.999 211.943 187.323 211.928 188.555 212.379C191.574 213.484 192.964 216.912 193.794 220.018C194.621 223.123 195.421 226.575 198.032 228.451C201.012 230.594 205.238 229.863 208.522 231.5C210.872 232.67 213.395 235.066 215.656 233.731C217.557 232.609 217.3 229.727 216.254 227.783C215.205 225.842 213.586 224.058 213.468 221.856C213.298 218.689 216.206 216.339 218.709 214.389C221.211 212.442 223.84 209.544 222.889 206.521C222.219 204.384 220.023 203.194 218.124 202.004C216.227 200.817 214.258 198.993 214.525 196.77C214.883 193.805 219.071 191.919 218.414 189.004C218.01 187.21 215.947 186.377 214.132 186.067C212.317 185.758 210.28 185.593 209.047 184.227C206.267 181.146 210.411 176.074 208.92 172.202C206.448 165.782 198.933 171.174 194.842 171.595C188.488 172.246 184.721 172.153 182.927 179.428" fill="#B3A998"/>
<path d="M184.281 194.222C183.638 196.61 183.573 199.328 184.952 201.381C187.986 205.9 195.394 204.356 199.59 207.824C202.006 209.82 203.378 213.463 206.48 213.922C209.704 214.398 212.157 210.894 212.689 207.679C213.39 203.466 212.211 198.975 209.533 195.643C207.623 193.266 204.861 191.171 204.616 188.133C204.263 183.726 207.905 180.641 204.656 176.459C202.572 173.775 198.567 171.962 195.2 172.764C191.566 173.63 189.368 177.024 188.262 180.353C186.786 184.8 185.5 189.685 184.281 194.222" fill="#E0D5BE"/>
<path d="M206.93 184.861C206.93 186.667 205.465 188.133 203.656 188.133C201.85 188.133 200.384 186.667 200.384 184.861C200.384 183.054 201.85 181.591 203.656 181.591C205.465 181.591 206.93 183.054 206.93 184.861Z" fill="#E34554"/>
<path d="M206.928 179.46L206.499 179.312C206.191 179.074 206.137 178.632 206.375 178.327C206.971 177.569 207.621 176.842 208.31 176.167C208.588 175.897 209.03 175.899 209.304 176.177C209.575 176.455 209.569 176.897 209.293 177.169C208.647 177.801 208.038 178.481 207.484 179.19C207.345 179.369 207.137 179.46 206.928 179.46" fill="#FBC030"/>
<path d="M219.208 171.619C218.892 171.619 218.604 171.404 218.526 171.084C218.433 170.709 218.665 170.328 219.042 170.235C220.785 169.808 222.556 169.589 224.308 169.58H224.312C224.697 169.58 225.011 169.894 225.013 170.279C225.015 170.667 224.704 170.983 224.316 170.985C222.674 170.991 221.013 171.198 219.375 171.6L219.208 171.619ZM232.678 172.671L232.408 172.617C230.856 171.968 229.248 171.507 227.622 171.242C227.239 171.181 226.98 170.821 227.041 170.437C227.104 170.054 227.468 169.785 227.845 169.858C229.582 170.138 231.299 170.633 232.949 171.324C233.307 171.473 233.476 171.884 233.324 172.242C233.212 172.511 232.951 172.671 232.678 172.671V172.671ZM211.439 175.171C211.217 175.171 211.003 175.068 210.866 174.874C210.641 174.558 210.716 174.12 211.032 173.897C212.468 172.878 214.031 172.014 215.673 171.334C216.033 171.187 216.444 171.358 216.591 171.716C216.74 172.073 216.57 172.484 216.212 172.631C214.664 173.272 213.195 174.082 211.843 175.04L211.439 175.171" fill="#FBC030"/>
<path d="M238.057 175.853L237.622 175.699C236.92 175.143 236.171 174.619 235.39 174.141C235.059 173.939 234.954 173.507 235.156 173.175C235.36 172.842 235.796 172.741 236.12 172.943C236.952 173.451 237.752 174.011 238.495 174.602C238.799 174.842 238.849 175.285 238.609 175.588C238.47 175.762 238.266 175.853 238.057 175.853" fill="#FBC030"/>
<path d="M243.568 181.591C239.807 179.603 234.63 177.596 230.591 177.091L237.182 174.444L240.55 168.199C240.599 172.265 242.012 177.634 243.568 181.591" fill="#FBC030"/>
<path d="M207.501 267.537C201.214 267.537 195.036 265.17 191.347 260.163C188.976 256.944 187.877 253.126 187.429 249.128C195.708 244.824 203.279 239.029 209.817 232.23C211.283 233.117 212.782 234.125 214.218 234.125C214.706 234.125 215.187 234.009 215.656 233.732C217.557 232.609 217.301 229.727 216.254 227.783C215.942 227.208 215.582 226.648 215.227 226.086C217.235 223.591 219.113 220.997 220.851 218.323C226.647 209.389 230.983 199.627 234.118 189.474C242.448 190.243 249.92 192.704 249.8 201.775C249.6 216.651 244.568 232.148 237.388 245.049C232.699 253.476 226.397 261.519 217.585 265.431C214.454 266.821 210.963 267.539 207.501 267.537" fill="#F3EBDB"/>
<path d="M187.429 249.128C187.039 245.66 187.138 242.057 187.315 238.593C187.723 230.706 188.34 222.827 189.164 214.973C189.241 214.244 189.321 213.509 189.408 212.774C191.846 214.164 193.046 217.221 193.794 220.018C194.621 223.123 195.421 226.575 198.032 228.451C201.012 230.594 205.238 229.863 208.522 231.499C208.948 231.712 209.381 231.965 209.817 232.23C203.279 239.029 195.708 244.824 187.429 249.128V249.128ZM215.227 226.086C214.378 224.749 213.55 223.406 213.468 221.856C213.298 218.689 216.206 216.339 218.709 214.389C221.211 212.442 223.841 209.544 222.889 206.521C222.219 204.384 220.023 203.194 218.124 202.004C216.227 200.817 214.258 198.993 214.525 196.77C214.883 193.805 219.071 191.919 218.414 189.004C218.398 188.929 218.377 188.853 218.353 188.779C218.825 188.8 219.292 188.828 219.758 188.859C223.902 189.156 229.161 189.015 234.118 189.474C230.983 199.627 226.647 209.389 220.851 218.323C219.113 220.997 217.235 223.591 215.227 226.086" fill="#FAF2E1"/>
<path d="M214.218 234.125C212.782 234.125 211.283 233.117 209.817 232.23C209.381 231.965 208.948 231.712 208.522 231.5C205.238 229.863 201.012 230.594 198.032 228.451C195.421 226.575 194.621 223.123 193.794 220.018C193.046 217.221 191.846 214.164 189.408 212.774C189.732 210.077 190.159 207.363 190.905 204.782C193.924 205.516 197.255 205.893 199.59 207.824C202.005 209.82 203.378 213.463 206.48 213.922C206.68 213.952 206.876 213.964 207.069 213.964C210 213.966 212.188 210.694 212.689 207.679C213.39 203.466 212.211 198.974 209.533 195.643C208.099 193.86 206.185 192.234 205.217 190.249C208.705 189.173 212.498 188.733 216.225 188.733C216.936 188.733 217.648 188.748 218.353 188.779C218.376 188.853 218.398 188.929 218.414 189.004C219.071 191.919 214.883 193.805 214.525 196.77C214.258 198.993 216.227 200.817 218.124 202.004C220.023 203.194 222.219 204.384 222.889 206.521C223.84 209.544 221.211 212.442 218.709 214.389C216.206 216.339 213.298 218.689 213.468 221.856C213.55 223.406 214.378 224.749 215.227 226.086C215.582 226.648 215.942 227.208 216.254 227.783C217.301 229.727 217.557 232.609 215.656 233.731C215.187 234.009 214.706 234.125 214.218 234.125" fill="#CCC5BA"/>
<path d="M207.069 213.964C206.876 213.964 206.68 213.951 206.48 213.922C203.378 213.463 202.005 209.82 199.59 207.824C197.255 205.893 193.924 205.516 190.905 204.782C191.692 202.059 192.831 199.484 194.569 197.237C197.262 193.759 201.022 191.544 205.217 190.249C206.185 192.234 208.099 193.86 209.533 195.643C212.211 198.974 213.39 203.466 212.689 207.679C212.188 210.694 210 213.966 207.069 213.964Z" fill="#EAE3D3"/>
<path d="M187.243 220.157C186.906 220.157 186.609 219.917 186.553 219.576C186.245 217.815 185.83 216.028 184.464 215.167C184.137 214.96 184.039 214.526 184.245 214.198C184.451 213.872 184.883 213.771 185.213 213.979C187.066 215.148 187.589 217.354 187.934 219.334C188.001 219.717 187.746 220.079 187.363 220.146L187.243 220.157ZM190.231 228.956C189.991 228.956 189.755 228.832 189.625 228.609C188.637 226.931 187.869 225.147 187.334 223.311C187.226 222.938 187.441 222.549 187.814 222.441C188.193 222.332 188.576 222.549 188.683 222.919C189.185 224.646 189.909 226.32 190.835 227.899C191.033 228.232 190.92 228.661 190.587 228.859L190.231 228.956ZM240.456 233.382L240.085 233.277C239.331 232.811 238.527 232.453 237.693 232.218C236.883 231.99 236.015 231.866 235.116 231.851C234.729 231.845 234.421 231.525 234.425 231.137C234.434 230.75 234.809 230.485 235.139 230.447C236.16 230.464 237.148 230.607 238.076 230.868C239.034 231.14 239.959 231.548 240.824 232.083C241.153 232.287 241.256 232.719 241.054 233.049C240.919 233.264 240.689 233.382 240.456 233.382V233.382ZM226.195 234.325C225.94 234.325 225.691 234.184 225.567 233.938C225.394 233.593 225.533 233.171 225.881 232.997C226.211 232.83 226.544 232.668 226.879 232.51C228.399 231.797 229.871 231.264 231.254 230.921C231.635 230.824 232.01 231.06 232.103 231.434C232.198 231.811 231.966 232.19 231.589 232.285C230.298 232.603 228.913 233.106 227.475 233.78C227.151 233.932 226.83 234.09 226.51 234.25L226.195 234.325ZM196.459 235.85L196.047 235.715C194.499 234.591 193.082 233.26 191.838 231.761C191.591 231.464 191.633 231.022 191.93 230.773C192.227 230.527 192.669 230.565 192.92 230.866C194.089 232.274 195.419 233.525 196.872 234.58C197.186 234.807 197.255 235.248 197.028 235.561C196.889 235.749 196.674 235.85 196.459 235.85V235.85ZM217.844 238.539C217.564 238.539 217.298 238.37 217.191 238.094C217.048 237.734 217.227 237.326 217.587 237.185C219.284 236.519 220.903 235.66 222.556 234.765C222.897 234.582 223.323 234.706 223.506 235.045C223.693 235.387 223.567 235.812 223.224 235.997C221.535 236.915 219.871 237.797 218.101 238.49L217.844 238.539ZM204.962 239.589L204.819 239.575C202.907 239.177 201.069 238.549 199.35 237.709C199.003 237.538 198.86 237.119 199.03 236.77C199.201 236.423 199.624 236.279 199.969 236.45C201.58 237.237 203.307 237.827 205.105 238.202C205.484 238.282 205.728 238.652 205.65 239.031C205.581 239.362 205.288 239.589 204.962 239.589ZM209.611 240.071C209.289 240.071 208.969 240.065 208.644 240.05C208.257 240.034 207.956 239.705 207.973 239.318C207.99 238.943 208.301 238.648 208.676 238.648H208.706C209.026 238.663 209.346 238.667 209.668 238.669C211.173 238.669 212.668 238.518 214.117 238.219C214.502 238.136 214.867 238.385 214.947 238.762C215.024 239.143 214.78 239.514 214.401 239.591C212.841 239.914 211.156 240.057 209.611 240.071V240.071ZM246.145 240.617C245.869 240.617 245.606 240.453 245.494 240.181C244.768 238.4 243.844 236.852 242.742 235.578C242.49 235.283 242.523 234.841 242.816 234.586C243.109 234.334 243.553 234.367 243.806 234.66C245.006 236.05 246.01 237.73 246.796 239.65C246.941 240.01 246.768 240.419 246.41 240.566L246.145 240.617ZM247.806 249.761H247.785C247.398 249.749 247.093 249.425 247.105 249.037L247.112 248.511C247.109 246.929 246.926 245.289 246.564 243.636C246.482 243.259 246.722 242.885 247.101 242.802C247.491 242.725 247.855 242.958 247.937 243.337C248.318 245.087 248.514 246.826 248.516 248.509L248.508 249.079C248.497 249.46 248.185 249.761 247.806 249.761V249.761ZM245.05 258.552L244.64 258.42C244.326 258.194 244.252 257.756 244.48 257.443C244.703 257.129 244.915 256.805 245.118 256.468C245.802 255.308 246.32 254.006 246.653 252.604C246.743 252.227 247.116 251.993 247.499 252.082C247.876 252.172 248.11 252.551 248.021 252.926C247.653 254.47 247.082 255.901 246.326 257.182C246.105 257.554 245.869 257.912 245.621 258.258C245.482 258.451 245.267 258.552 245.05 258.552V258.552ZM206.514 260.835L206.36 260.818C204.995 260.508 203.747 260.268 202.542 260.087C202.008 260.005 201.462 259.938 200.915 259.885C200.53 259.847 200.245 259.506 200.283 259.121C200.321 258.733 200.65 258.441 201.05 258.489C201.624 258.544 202.191 258.615 202.751 258.7C203.991 258.887 205.273 259.131 206.669 259.449C207.048 259.536 207.284 259.91 207.198 260.289C207.124 260.614 206.836 260.835 206.514 260.835V260.835ZM191.876 261.313C191.631 261.313 191.391 261.184 191.263 260.953C191.073 260.616 191.193 260.188 191.532 259.999C193.12 259.11 195.025 258.578 197.192 258.42C197.617 258.409 197.914 258.683 197.944 259.068C197.971 259.456 197.683 259.79 197.295 259.82C195.335 259.963 193.625 260.435 192.219 261.222L191.876 261.313ZM215.557 263.25L215.37 263.225L213.121 262.595C212.068 262.3 211.017 262.005 209.963 261.721C209.588 261.62 209.367 261.235 209.468 260.862C209.567 260.489 209.952 260.27 210.329 260.365C211.388 260.652 212.445 260.948 213.502 261.245L215.742 261.871C216.115 261.974 216.336 262.361 216.233 262.734C216.147 263.046 215.867 263.25 215.557 263.25V263.25ZM237.611 263.997C237.327 263.997 237.059 263.825 236.954 263.543C236.817 263.18 237 262.776 237.363 262.639C239.14 261.972 240.713 261.087 242.039 260.011C242.34 259.769 242.78 259.811 243.027 260.115C243.271 260.414 243.225 260.856 242.924 261.1C241.481 262.271 239.778 263.231 237.857 263.953L237.611 263.997ZM224.693 265.248L224.601 265.242C222.893 265.016 221.067 264.667 219.017 264.172C218.64 264.082 218.406 263.703 218.499 263.326C218.587 262.951 218.96 262.719 219.345 262.808C221.348 263.29 223.127 263.631 224.784 263.852C225.169 263.9 225.441 264.254 225.388 264.64C225.342 264.991 225.039 265.248 224.693 265.248V265.248ZM228.698 265.52H228.418C228.031 265.516 227.719 265.198 227.723 264.81C227.727 264.427 228.041 264.115 228.427 264.115H228.433L228.698 264.117C230.479 264.117 232.221 263.951 233.874 263.625C234.278 263.543 234.623 263.797 234.699 264.176C234.775 264.555 234.529 264.924 234.147 265C232.404 265.345 230.57 265.52 228.698 265.52V265.52ZM187.728 269.112C187.376 269.112 187.073 268.851 187.031 268.495C186.997 268.206 186.98 267.916 186.98 267.623C186.978 265.926 187.532 264.176 188.54 262.696C188.761 262.374 189.197 262.296 189.515 262.511C189.835 262.73 189.919 263.166 189.7 263.486C188.862 264.715 188.382 266.223 188.384 267.623C188.384 267.859 188.397 268.095 188.424 268.329C188.471 268.712 188.195 269.061 187.812 269.108L187.728 269.112ZM189.427 272.493L188.968 272.325L189.33 271.706L189.812 271.194L189.33 271.706L189.886 271.262C190.176 271.514 190.21 271.957 189.957 272.251C189.818 272.411 189.623 272.493 189.427 272.493" fill="#FBC030"/>
<path d="M220.897 184.766C221.107 186.292 221.32 187.819 221.539 189.346C234.217 187.276 247.069 187.838 259.311 190.893C259.659 189.607 260.008 188.32 260.36 187.036C247.648 183.635 234.221 182.818 220.897 184.766" fill="#BFB5A2"/>
<path d="M220.897 195.029C221.107 196.555 221.32 198.082 221.539 199.608C234.217 197.539 247.069 198.099 259.311 201.156C259.659 199.869 260.008 198.583 260.36 197.298C247.648 193.898 234.221 193.081 220.897 195.029" fill="#BFB5A2"/>
<path d="M181.615 274.978C181.861 276.315 182.11 277.652 182.36 278.987C204.709 274.626 227.66 274.898 249.8 279.734C250.061 278.589 250.323 277.444 250.584 276.298C228.016 271.175 204.545 270.697 181.615 274.978Z" fill="#BFB5A2"/>
<path d="M281.761 185.476C282.007 186.813 282.256 188.148 282.504 189.485C304.855 185.124 327.806 185.396 349.947 190.232C350.208 189.087 350.469 187.941 350.73 186.796C328.162 181.671 304.691 181.195 281.761 185.476Z" fill="#BFB5A2"/>
<path d="M281.761 195.662C282.007 196.999 282.256 198.334 282.504 199.671C304.855 195.311 327.806 195.58 349.947 200.419C350.208 199.273 350.469 198.128 350.73 196.983C328.162 191.858 304.691 191.382 281.761 195.662Z" fill="#BFB5A2"/>
<path d="M281.761 205.925C282.007 207.262 282.256 208.597 282.504 209.934C304.855 205.573 327.806 205.843 349.947 210.682C350.208 209.536 350.469 208.391 350.73 207.245C328.162 202.12 304.691 201.644 281.761 205.925Z" fill="#BFB5A2"/>
<path d="M281.761 217.472C282.007 218.809 282.256 220.144 282.504 221.481C304.855 217.12 327.806 217.392 349.947 222.229C350.208 221.083 350.469 219.938 350.73 218.792C328.162 213.667 304.691 213.191 281.761 217.472Z" fill="#BFB5A2"/>
<path d="M311.703 228.901C311.324 228.901 311.012 228.598 311.002 228.219C310.989 227.832 311.294 227.507 311.682 227.497C313.238 227.455 314.787 227.432 316.339 227.432L317.32 227.436C317.708 227.438 318.022 227.754 318.02 228.141C318.017 228.527 317.704 228.838 317.316 228.838H317.314L316.339 228.836C314.802 228.836 313.265 228.857 311.724 228.901H311.703ZM326.671 229.156L326.629 229.154C324.753 229.04 322.894 228.956 321.041 228.903C320.654 228.893 320.348 228.569 320.359 228.181C320.371 227.794 320.717 227.529 321.081 227.501C322.949 227.554 324.823 227.638 326.713 227.754C327.101 227.777 327.394 228.11 327.37 228.497C327.349 228.868 327.04 229.156 326.671 229.156ZM302.358 229.417C301.996 229.417 301.691 229.139 301.659 228.771C301.627 228.385 301.914 228.046 302.301 228.017C304.196 227.861 306.068 227.737 307.929 227.644C308.323 227.611 308.645 227.924 308.666 228.31C308.685 228.697 308.386 229.028 307.999 229.047C306.152 229.139 304.295 229.261 302.415 229.413L302.358 229.417ZM335.991 229.963L335.915 229.958C334.033 229.75 332.18 229.571 330.346 229.419C329.958 229.39 329.67 229.051 329.701 228.663C329.735 228.28 330.068 227.992 330.459 228.023C332.306 228.173 334.176 228.354 336.067 228.564C336.454 228.604 336.732 228.952 336.69 229.337C336.65 229.697 336.344 229.963 335.991 229.963V229.963ZM293.049 230.396C292.7 230.396 292.399 230.137 292.352 229.784C292.304 229.4 292.576 229.047 292.961 228.998C294.856 228.756 296.719 228.543 298.555 228.358C298.998 228.303 299.288 228.602 299.326 228.986C299.364 229.371 299.084 229.716 298.699 229.754C296.873 229.937 295.02 230.15 293.14 230.39L293.049 230.396ZM345.268 231.182L345.165 231.175C343.284 230.891 341.438 230.632 339.619 230.401C339.233 230.352 338.962 230 339.01 229.615C339.059 229.232 339.398 228.956 339.798 229.009C341.623 229.242 343.48 229.504 345.373 229.788C345.756 229.845 346.02 230.203 345.963 230.586C345.91 230.933 345.611 231.182 345.268 231.182V231.182ZM283.787 231.754C283.45 231.754 283.151 231.51 283.094 231.165C283.033 230.784 283.29 230.422 283.675 230.36C285.564 230.049 287.419 229.763 289.24 229.504C289.602 229.44 289.977 229.714 290.032 230.097C290.087 230.483 289.821 230.836 289.436 230.891C287.627 231.152 285.785 231.436 283.9 231.744L283.787 231.754ZM350.553 235.801L350.507 235.799C350.119 235.774 349.827 235.439 349.852 235.052C349.919 234.022 349.993 232.993 350.073 231.963L348.852 231.759C348.471 231.695 348.212 231.333 348.275 230.952C348.336 230.571 348.666 230.304 349.083 230.373L350.94 230.685C351.298 230.746 351.553 231.07 351.524 231.432C351.425 232.67 351.334 233.908 351.252 235.147C351.229 235.517 350.919 235.801 350.553 235.801ZM282.355 239.457C281.984 239.457 281.675 239.166 281.654 238.793C281.549 236.932 281.429 235.069 281.29 233.205C281.26 232.818 281.551 232.483 281.938 232.453C282.315 232.441 282.66 232.715 282.69 233.102C282.829 234.974 282.949 236.844 283.054 238.713C283.077 239.101 282.782 239.434 282.395 239.455L282.355 239.457ZM350.06 245.142H350.031C349.643 245.125 349.344 244.799 349.359 244.411C349.435 242.539 349.523 240.667 349.627 238.796C349.648 238.408 349.985 238.111 350.366 238.132C350.753 238.153 351.05 238.484 351.027 238.871C350.928 240.737 350.839 242.605 350.764 244.47C350.747 244.847 350.435 245.142 350.06 245.142V245.142ZM282.801 248.799C282.427 248.799 282.115 248.502 282.098 248.125C282.024 246.258 281.942 244.392 281.85 242.525C281.831 242.137 282.13 241.809 282.517 241.79C282.921 241.743 283.233 242.068 283.254 242.455C283.347 244.327 283.427 246.199 283.503 248.069C283.517 248.456 283.216 248.782 282.829 248.797L282.801 248.799ZM349.728 254.493H349.707C349.319 254.48 349.014 254.156 349.026 253.768C349.085 251.897 349.149 250.025 349.216 248.155C349.233 247.77 349.471 247.435 349.945 247.479C350.332 247.494 350.633 247.818 350.62 248.205C350.553 250.075 350.49 251.945 350.431 253.813C350.418 254.192 350.107 254.493 349.728 254.493V254.493ZM283.155 258.146C282.778 258.146 282.469 257.849 282.454 257.47L282.241 251.863C282.227 251.475 282.528 251.151 282.915 251.136C283.252 251.065 283.631 251.423 283.646 251.81L283.856 257.417C283.871 257.805 283.57 258.131 283.182 258.146H283.155ZM349.401 263.839L349.374 263.837C348.986 263.823 348.683 263.496 348.698 263.109C348.774 261.241 348.839 259.373 348.902 257.506C348.915 257.118 349.182 256.834 349.627 256.828C350.014 256.84 350.319 257.165 350.307 257.552C350.243 259.422 350.178 261.294 350.102 263.166C350.086 263.543 349.776 263.839 349.401 263.839V263.839ZM283.555 267.493C283.182 267.493 282.873 267.202 282.854 266.825C282.759 264.955 282.677 263.084 282.601 261.214C282.587 260.826 282.886 260.5 283.273 260.483H283.302C283.677 260.483 283.989 260.778 284.006 261.155C284.082 263.022 284.164 264.888 284.258 266.756C284.275 267.143 283.978 267.472 283.591 267.493H283.555ZM348.944 273.182H348.9C348.515 273.157 348.22 272.824 348.243 272.439C348.359 270.573 348.456 268.708 348.542 266.844C348.561 266.457 348.9 266.145 349.277 266.175C349.662 266.193 349.961 266.522 349.945 266.907C349.86 268.779 349.759 270.651 349.643 272.523C349.622 272.896 349.313 273.182 348.944 273.182V273.182ZM320.736 274.618H320.717C319.253 274.578 317.794 274.559 316.331 274.559L315.126 274.563H315.122C314.737 274.563 314.421 274.252 314.419 273.866C314.417 273.479 314.728 273.163 315.116 273.159L316.331 273.155C317.805 273.155 319.279 273.176 320.755 273.214C321.142 273.226 321.45 273.548 321.439 273.936C321.426 274.317 321.115 274.618 320.736 274.618V274.618ZM305.771 274.9C305.405 274.9 305.095 274.614 305.072 274.243C305.047 273.856 305.34 273.523 305.727 273.498C307.616 273.378 309.49 273.287 311.357 273.23C311.757 273.222 312.069 273.523 312.082 273.91C312.092 274.298 311.789 274.622 311.402 274.635C309.547 274.69 307.687 274.778 305.818 274.898L305.771 274.9ZM330.082 275.132L330.026 275.13C328.152 274.976 326.292 274.854 324.444 274.761C324.056 274.742 323.757 274.412 323.776 274.026C323.799 273.641 324.136 273.338 324.513 273.359C326.377 273.451 328.251 273.576 330.139 273.732C330.527 273.763 330.813 274.102 330.782 274.487C330.752 274.854 330.445 275.132 330.082 275.132ZM296.452 275.742C296.098 275.742 295.795 275.479 295.755 275.121C295.709 274.736 295.987 274.388 296.372 274.344C298.261 274.125 300.124 273.936 301.977 273.778C302.358 273.729 302.703 274.031 302.737 274.416C302.771 274.803 302.482 275.142 302.097 275.176C300.261 275.334 298.406 275.521 296.532 275.738L296.452 275.742ZM339.387 276.134L339.297 276.128C337.42 275.879 335.57 275.662 333.738 275.473C333.352 275.433 333.07 275.09 333.11 274.704C333.15 274.317 333.487 274.037 333.881 274.077C335.728 274.268 337.593 274.487 339.48 274.736C339.863 274.786 340.132 275.138 340.084 275.523C340.036 275.877 339.734 276.134 339.387 276.134V276.134ZM284.126 276.831C283.761 276.831 283.454 276.549 283.427 276.182C283.286 274.311 283.161 272.439 283.054 270.569C283.031 270.182 283.328 269.851 283.715 269.828C284.065 269.788 284.435 270.101 284.454 270.489C284.564 272.35 284.686 274.214 284.827 276.075C284.856 276.462 284.564 276.799 284.178 276.829L284.126 276.831ZM287.183 277.029C286.842 277.029 286.545 276.783 286.49 276.439C286.427 276.056 286.688 275.696 287.071 275.635C288.954 275.332 290.811 275.058 292.643 274.812C293.032 274.759 293.382 275.029 293.432 275.414C293.485 275.797 293.214 276.151 292.83 276.201C291.009 276.446 289.167 276.719 287.295 277.02L287.183 277.029ZM348.641 277.549L348.519 277.541C346.649 277.216 344.809 276.917 342.992 276.648C342.609 276.589 342.343 276.233 342.4 275.85C342.459 275.469 342.771 275.205 343.2 275.258C344.784 275.496 346.388 275.753 348.014 276.029C348.1 275.711 348.422 275.511 348.744 275.515C349.13 275.544 349.418 275.883 349.391 276.269L349.34 276.903C349.323 277.1 349.226 277.282 349.071 277.402L348.641 277.549Z" fill="#FBC030"/>
<path d="M343.916 272.432C324.317 269.038 308.483 269.021 288.884 272.415C287.88 259.464 287.933 246.561 286.899 233.611C308.525 229.922 324.153 229.922 345.78 233.611C344.744 246.561 344.918 259.479 343.916 272.432Z" fill="#E0D5BE"/>
<path d="M209.247 318.705L199.411 315.767L195.476 314.592L193.265 313.931C192.446 313.685 192.41 312.725 193.208 312.417L195.101 311.695L197.481 310.79L198.66 310.337L208.792 306.471L209.247 318.705" fill="#F0C9A8"/>
<path d="M209.247 318.705L199.411 315.767L195.476 314.592C195.196 313.999 195.074 313.35 195.051 312.708C195.038 312.373 195.046 312.032 195.101 311.695L197.481 310.79L198.66 310.337C198.74 311.87 199.561 313.369 200.923 314.38C202.675 315.679 205.275 316.125 207.52 315.511C208.013 315.378 208.674 314.66 209.095 314.169L209.247 318.705" fill="#E6C0A1"/>
<path d="M199.411 315.767L193.265 313.931C192.642 313.744 192.469 313.142 192.779 312.729C192.876 312.601 193.017 312.491 193.208 312.417L196.824 311.038L197.481 310.79L199.102 311.434L197.382 312.544L199.39 313.266L197.443 314.199L199.411 315.767" fill="#ADADAD"/>
<path d="M199.411 315.767L193.265 313.931C192.642 313.744 192.469 313.142 192.779 312.729L192.85 313.199C193.042 313.485 193.446 313.611 193.819 313.715C194.967 314.03 196.11 314.344 197.257 314.66L196.853 314.336L196.855 313.889C197.003 313.719 197.293 313.708 197.544 313.672C197.788 313.639 198.083 313.502 198.049 313.293L197.643 313.024L197.097 312.948C196.803 312.834 196.706 312.47 196.91 312.26C197.053 312.11 197.285 312.049 197.493 311.971C197.702 311.893 197.917 311.765 197.935 311.575C197.959 311.344 197.67 311.177 197.405 311.125L196.824 311.038L197.481 310.79L199.102 311.434L197.382 312.544L199.39 313.266L197.443 314.199L199.411 315.767" fill="#919191"/>
<path d="M209.245 318.671L303.287 315.188L302.836 303.033L208.794 306.516L209.245 318.671" fill="#FFA70B"/>
<path d="M318.849 314.374L311.376 314.649L310.947 303.056L318.419 302.78C320.727 302.694 322.654 304.189 322.725 306.122L322.896 310.723C322.925 311.521 322.633 312.272 322.119 312.881C321.384 313.74 320.203 314.323 318.849 314.374Z" fill="#F3778C"/>
<path d="M318.849 314.374L312.059 314.624L311.713 314.338L311.351 313.988L310.947 303.056L312.762 302.989L312.842 303.243C313.204 304.797 313.006 306.467 313.297 308.044C313.501 309.145 313.812 310.28 314.636 311.15C316.046 312.641 318.601 312.978 320.885 312.849C321.279 312.828 321.723 312.813 322.119 312.881C321.384 313.74 320.203 314.323 318.849 314.374" fill="#E06E81"/>
<path d="M321.885 306.387C321.169 305.332 319.915 304.547 318.502 304.269C317.64 304.098 316.697 304.119 315.901 304.458C315.105 304.795 314.495 305.49 314.501 306.233C314.503 306.8 314.844 307.32 315.196 307.8C315.764 308.577 316.386 309.322 317.057 310.036C317.784 310.809 318.666 311.588 319.832 311.735C323.481 312.192 322.976 307.996 321.885 306.387Z" fill="#FF8CA0"/>
<path d="M314.613 314.529L312.059 314.624L311.713 314.338L311.351 313.988L310.947 303.056L312.528 302.997L312.511 303.024C312.271 303.528 312.324 304.117 312.374 304.644C312.612 307.162 312.857 309.678 313.094 312.198C313.172 312.988 313.334 313.896 314.141 314.294L314.613 314.529" fill="#C76273"/>
<path d="M312.501 315.3L303.27 315.643L302.783 302.578L312.016 302.235L312.501 315.3Z" fill="#D4D4D4"/>
<path d="M312.501 315.3L303.27 315.643L302.783 302.578L304.249 302.523C304.388 302.942 304.365 303.393 304.363 303.831C304.333 306.374 304.967 308.969 306.582 311.108C307.62 312.485 309.094 313.651 310.837 314.39C311.231 314.555 311.909 314.662 312.484 314.826L312.501 315.3Z" fill="#C7C7C7"/>
<path d="M312.347 311.171L311.869 310.986C309.553 310.011 307.679 308.263 306.59 306.309C305.959 305.183 305.573 303.959 305.498 302.709L305.493 302.477L312.016 302.235L312.347 311.171Z" fill="#EBEBEB"/>
<path d="M309.462 310.687C309.374 310.687 309.283 310.68 309.187 310.67C308.719 310.617 308.359 310.318 308.047 310.026C307.5 309.512 306.992 308.971 306.529 308.404C305.961 307.709 305.439 306.859 305.754 306.05C305.841 305.831 305.986 305.635 306.173 305.473C306.298 305.758 306.437 306.035 306.59 306.309C307.456 307.863 308.818 309.286 310.505 310.295C310.262 310.537 309.923 310.687 309.462 310.687" fill="#E7E7E7"/>
<path d="M310.505 310.295C308.818 309.286 307.456 307.863 306.59 306.309C306.437 306.035 306.298 305.758 306.173 305.473C306.599 305.103 307.235 304.888 307.86 304.888C307.988 304.888 308.115 304.896 308.239 304.915C309.245 305.063 310.069 305.707 310.528 306.469C310.964 307.189 311.402 309.392 310.505 310.295" fill="#F4F4F4"/>
<path d="M208.948 310.638L302.88 307.16L302.727 302.993L208.792 306.471L208.948 310.638" fill="#FFB229"/>
<path d="M209.242 318.616L303.03 315.142L302.872 310.901L209.085 314.376L209.242 318.616Z" fill="#F09D0A"/>
<path d="M300.922 309.562C299.037 311.809 295.993 313.23 292.839 313.963C289.684 314.698 286.387 314.814 283.128 314.923C264.836 315.544 246.547 316.163 228.258 316.787C224.177 316.926 220.052 317.06 216.056 316.408C213.601 316.007 211.177 315.275 209.087 314.159L209.255 318.703L303.223 315.222L302.773 303.064L302.752 303.067C302.693 303.412 302.665 303.745 302.649 303.987C302.482 306.04 302.411 307.785 300.922 309.562Z" fill="#E09309"/>
<path d="M274.838 310.823C270.686 310.823 266.527 310.674 262.385 310.474C261.552 310.434 260.699 310.388 259.939 310.11C259.263 309.861 258.663 309.392 258.477 308.804L295.033 307.45C294.805 308.006 294.344 308.545 293.944 308.823C292.87 309.571 291.432 309.798 290.057 309.971C285.014 310.598 279.929 310.823 274.838 310.823" fill="#FFBA3F"/>
<path d="M258.477 308.804C258.454 308.729 258.437 308.653 258.427 308.573C258.336 307.84 258.915 307.133 259.661 306.732C260.406 306.33 261.295 306.179 262.164 306.048C267.003 305.324 271.907 305.071 276.805 305.071C278.527 305.071 280.247 305.103 281.963 305.155C285.221 305.256 288.474 305.44 291.723 305.638C291.86 305.646 292.015 305.648 292.184 305.648C292.27 305.648 292.361 305.648 292.453 305.646C292.546 305.646 292.639 305.646 292.733 305.646C293.607 305.646 294.597 305.69 294.982 306.202C295.245 306.551 295.212 307.006 295.033 307.45L258.477 308.804Z" fill="#FFC256"/>
<path d="M237.811 313.959C236.23 313.959 234.651 313.904 233.076 313.776C232.208 313.706 231.187 313.477 230.629 312.994L253.616 312.142C252.921 312.748 251.573 313.074 250.716 313.157C246.427 313.557 242.111 313.959 237.811 313.959" fill="#FFBA3F"/>
<path d="M202.572 313.264C201.597 313.264 200.767 312.98 200.416 312.3C200.161 311.807 200.502 311.238 200.911 310.817C201.692 310.011 204.204 308.809 205.903 308.809C206.928 308.809 207.657 309.244 207.541 310.461C207.398 311.967 204.656 313.264 202.572 313.264Z" fill="#F3D4BA"/>
<path d="M230.629 309.836C230.378 309.619 230.22 309.352 230.21 309.023C230.178 307.981 231.686 307.44 232.909 307.227C236.775 306.551 240.719 306.214 244.656 306.214C245.724 306.214 246.791 306.238 247.859 306.288C249.316 306.355 252.818 306.105 253.738 307.316C254.264 308.013 254.098 308.564 253.616 308.983L230.629 309.836Z" fill="#FFC256"/>
</svg>
